<svg xmlns="http://www.w3.org/2000/svg" width="62" height="55" viewBox="0 0 62 55">
  <metadata><?xpacket begin="﻿" id="W5M0MpCehiHzreSzNTczkc9d"?>
<x:xmpmeta xmlns:x="adobe:ns:meta/" x:xmptk="Adobe XMP Core 5.6-c138 79.159824, 2016/09/14-01:09:01        ">
   <rdf:RDF xmlns:rdf="http://www.w3.org/1999/02/22-rdf-syntax-ns#">
      <rdf:Description rdf:about=""/>
   </rdf:RDF>
</x:xmpmeta>
                                                                                                    
                                                                                                    
                                                                                                    
                                                                                                    
                                                                                                    
                                                                                                    
                                                                                                    
                                                                                                    
                                                                                                    
                                                                                                    
                                                                                                    
                                                                                                    
                                                                                                    
                                                                                                    
                                                                                                    
                                                                                                    
                                                                                                    
                                                                                                    
                                                                                                    
                                                                                                    
                           
<?xpacket end="w"?></metadata>
<defs>
    <style>
      .cls-1 {
        fill-rule: evenodd;
      }
    </style>
  </defs>
  <path id="Career" class="cls-1" d="M633.156,1244.74l-5.278-2.34a1.02,1.02,0,0,1-.614-0.94v-1.44a7.648,7.648,0,0,0,2.913-6v-2.04a1.866,1.866,0,0,0,.971-1.63v-0.2a7.7,7.7,0,0,0-7.7-7.68H621.5a7.7,7.7,0,0,0-7.7,7.68v1.79a1.905,1.905,0,0,0,.724,1.52,2.355,2.355,0,0,0,.246.16v0.4a7.65,7.65,0,0,0,2.912,6v1.44a1.021,1.021,0,0,1-.613.94l-5.278,2.34a4.784,4.784,0,0,0-2.845,4.36v12a0.908,0.908,0,0,0,1.816,0v-12a2.931,2.931,0,0,1,.019-0.31l2.432,2.42a1.994,1.994,0,0,1,.587,1.42v8.46a0.908,0.908,0,1,0,1.816,0v-8.46a3.793,3.793,0,0,0-1.119-2.7l-2.9-2.88a3.016,3.016,0,0,1,.931-0.66l5.188-2.29,3.848,3.83v13.16a0.909,0.909,0,1,0,1.817,0v-13.16l3.848-3.83,5.188,2.29a3.016,3.016,0,0,1,.931.66l-2.9,2.88a3.793,3.793,0,0,0-1.119,2.7v8.47a0.909,0.909,0,0,0,1.817,0v-8.47a1.99,1.99,0,0,1,.587-1.42l2.431-2.42a2.931,2.931,0,0,1,.019.31v11.99a0.908,0.908,0,1,0,1.816,0V1249.1A4.784,4.784,0,0,0,633.156,1244.74Zm-10.682,1.54-3.377-3.37a2.828,2.828,0,0,0,.4-1.45v-0.36a7.793,7.793,0,0,0,5.949,0v0.36a2.828,2.828,0,0,0,.4,1.45Zm0-6.4a5.881,5.881,0,0,1-5.887-5.86v-0.41a5.259,5.259,0,0,0,1.649-1.07,0.9,0.9,0,0,0,.051-1.28,0.916,0.916,0,0,0-1.283-.05,3.322,3.322,0,0,1-1.349.81h-0.024a0.183,0.183,0,0,1-.015-0.08v-1.79a5.883,5.883,0,0,1,5.887-5.87h1.941a5.883,5.883,0,0,1,5.887,5.87v0.2a0.076,0.076,0,0,1-.041.06c-5.439,1.06-8.166-.95-9.087-1.87a0.916,0.916,0,0,0-1.284,0,0.9,0.9,0,0,0,0,1.28c2.82,2.81,6.936,2.86,9.441,2.56v1.64A5.88,5.88,0,0,1,622.474,1239.88Zm-20.386-10.64h-1.941a5.761,5.761,0,0,0-5.762,5.74v1.94a0.9,0.9,0,0,0,.908.9h0.063v1.03a5.7,5.7,0,0,0,1.941,4.29v1.29a1.03,1.03,0,0,1-.571.92l-5.083,2.53a3.78,3.78,0,0,0-2.111,3.4v9.81a0.908,0.908,0,1,0,1.816,0v-9.81a2.124,2.124,0,0,1,.066-0.51l1.413,1.41a1.984,1.984,0,0,1,.587,1.41v7.5a0.909,0.909,0,1,0,1.817,0v-7.5a3.787,3.787,0,0,0-1.119-2.69l-1.492-1.48,4.918-2.45a3.352,3.352,0,0,0,.451-0.28l2.22,2.21v12.19a0.909,0.909,0,1,0,1.817,0V1248.9l2.221-2.21a3.278,3.278,0,0,0,.45.28l0.868,0.43a0.969,0.969,0,0,0,.4.09,0.9,0.9,0,0,0,.407-1.71l-0.868-.43a1.03,1.03,0,0,1-.571-0.92v-1.29a5.7,5.7,0,0,0,1.942-4.29v-1.03h0.062a0.9,0.9,0,0,0,.908-0.9v-1.94A5.761,5.761,0,0,0,602.088,1229.24Zm-0.97,18-2.1-2.09a2.8,2.8,0,0,0,.1-0.72v-0.2a5.758,5.758,0,0,0,4.008,0v0.2a2.8,2.8,0,0,0,.094.72Zm3.945-8.39a3.946,3.946,0,0,1-7.891,0v-1.46a7.6,7.6,0,0,0,2.132-1.29,16.224,16.224,0,0,0,5.759,1.63v1.12Zm0.971-2.86a13.81,13.81,0,0,1-6.354-1.76,0.922,0.922,0,0,0-1.146.11,5.927,5.927,0,0,1-2.332,1.49v-0.85h0a3.946,3.946,0,0,1,3.945-3.93h1.941a3.947,3.947,0,0,1,3.946,3.93v1.01Zm-18.569,7.7v-1.94a4.791,4.791,0,0,0-9.581-.04v0.01c0,0.01,0,.02,0,0.03v1.94a4.753,4.753,0,0,0,1.941,3.83v1.37a0.061,0.061,0,0,1-.034.06l-4.215,2.1a2.81,2.81,0,0,0-1.575,2.54v7.5a0.908,0.908,0,1,0,1.816,0v-7.5a1.008,1.008,0,0,1,.571-0.92l2.872-1.43,2.506,2.49v7.36a0.909,0.909,0,1,0,1.817,0v-7.36l2.507-2.49,0.06,0.03a0.97,0.97,0,0,0,.406.09,0.9,0.9,0,0,0,.406-1.71l-1.4-.7a0.062,0.062,0,0,1-.035-0.06v-1.37A4.754,4.754,0,0,0,587.465,1243.69Zm-4.791-4.9a2.972,2.972,0,0,1,2.974,2.96v0.05a37.053,37.053,0,0,1-5.863-.75A2.974,2.974,0,0,1,582.674,1238.79Zm0,13.29-1.734-1.73a1.858,1.858,0,0,0,.7-1.46v-0.54a4.905,4.905,0,0,0,2.066,0v0.54a1.855,1.855,0,0,0,.7,1.46Zm0-5.43a2.973,2.973,0,0,1-2.975-2.96v-0.81a37.8,37.8,0,0,0,5.95.73v0.08A2.973,2.973,0,0,1,582.674,1246.65Zm-3.883,8.7a0.91,0.91,0,0,0-.908.91v4.84a0.908,0.908,0,0,0,1.816,0v-4.84A0.91,0.91,0,0,0,578.791,1255.35Zm57.142-46.78a0.932,0.932,0,0,0-.723-0.56l-7.761-1a0.9,0.9,0,1,0-.234,1.79l4.376,0.57-56.856,23.26a0.9,0.9,0,0,0,.345,1.74,0.845,0.845,0,0,0,.345-0.07l56.845-23.25-2.7,3.46a0.9,0.9,0,0,0,.158,1.27,0.965,0.965,0,0,0,.558.19,0.906,0.906,0,0,0,.717-0.35l4.81-6.15A0.9,0.9,0,0,0,635.933,1208.57Z" transform="translate(-574 -1207)"/>
</svg>
