<svg xmlns="http://www.w3.org/2000/svg" width="64.97" height="47.97" viewBox="0 0 64.97 47.97">
  <metadata><?xpacket begin="﻿" id="W5M0MpCehiHzreSzNTczkc9d"?>
<x:xmpmeta xmlns:x="adobe:ns:meta/" x:xmptk="Adobe XMP Core 5.6-c138 79.159824, 2016/09/14-01:09:01        ">
   <rdf:RDF xmlns:rdf="http://www.w3.org/1999/02/22-rdf-syntax-ns#">
      <rdf:Description rdf:about=""/>
   </rdf:RDF>
</x:xmpmeta>
                                                                                                    
                                                                                                    
                                                                                                    
                                                                                                    
                                                                                                    
                                                                                                    
                                                                                                    
                                                                                                    
                                                                                                    
                                                                                                    
                                                                                                    
                                                                                                    
                                                                                                    
                                                                                                    
                                                                                                    
                                                                                                    
                                                                                                    
                                                                                                    
                                                                                                    
                                                                                                    
                           
<?xpacket end="w"?></metadata>
<defs>
    <style>
      .cls-1 {
        fill-rule: evenodd;
      }
    </style>
  </defs>
  <path id="Hands" class="cls-1" d="M1207.7,1227.26l-12.61-12.56a1.05,1.05,0,0,0-1.47,0l-6.3,6.28a1.015,1.015,0,0,0,0,1.46l0.63,0.63-1.45,1.44a3.25,3.25,0,0,1-3.62.63,9.042,9.042,0,0,0-3.7-.79,8.92,8.92,0,0,0-4.3,1.09,6.647,6.647,0,0,0-1.67-.21,6.954,6.954,0,0,0-2.39.42,3.243,3.243,0,0,1-3.43-.71l-2.59-2.59,0.31-.31a1.028,1.028,0,0,0,.3-0.73,1.046,1.046,0,0,0-.3-0.73l-6.31-6.28a1.038,1.038,0,0,0-1.46,0l-14.04,13.98a1.038,1.038,0,0,0,0,1.46l6.31,6.28a1.038,1.038,0,0,0,1.46,0l0.38-.37,1.83,1.82a3.1,3.1,0,0,1,.88,1.66,16.217,16.217,0,0,0,4.52,8.54l0.35,0.34a3.667,3.667,0,0,0-1.03,2.56,3.731,3.731,0,0,0,1.09,2.64,3.773,3.773,0,0,0,2.65,1.09c0.06,0,.12-0.01.18-0.01a3.729,3.729,0,0,0,3.73,3.91h0.09a3.664,3.664,0,0,0,1.09,2.71,3.742,3.742,0,0,0,5.28,0c0.06-.06.12-0.12,0.17-0.18a3.522,3.522,0,0,0,3.62-.83,3.629,3.629,0,0,0,.79-1.2l0.1,0.1a3.5,3.5,0,0,0,4.94,0,3.388,3.388,0,0,0,.8-1.25,3.5,3.5,0,0,0,5.55-2.81,3.754,3.754,0,0,0-.1-0.82,3.5,3.5,0,0,0,1.76-.95,3.459,3.459,0,0,0,1.03-2.46,3.42,3.42,0,0,0-.65-2.01l0.83-.83a16.184,16.184,0,0,0,4.54-8.65,2.8,2.8,0,0,1,.79-1.48l3.1-3.08,0.54,0.54a1.061,1.061,0,0,0,.74.3,1.038,1.038,0,0,0,.73-0.3l6.31-6.28A1.038,1.038,0,0,0,1207.7,1227.26Zm-57.36,6.57-4.84-4.82,12.57-12.52,4.83,4.82Zm12.57,17.91a1.66,1.66,0,0,1-2.35,0,1.654,1.654,0,0,1,0-2.33,1.65,1.65,0,0,1,1.18-.49A1.655,1.655,0,0,1,1162.91,1251.74Zm3.92,3.91a1.672,1.672,0,0,1-1.18.48,1.65,1.65,0,0,1-1.17-2.82,1.627,1.627,0,0,1,1.17-.49A1.66,1.66,0,0,1,1166.83,1255.65Zm3.81,3.8a1.649,1.649,0,0,1-1.17.48,1.65,1.65,0,0,1-1.18-2.82,1.692,1.692,0,0,1,1.18-.49,1.669,1.669,0,0,1,1.17.49A1.648,1.648,0,0,1,1170.64,1259.45Zm17.63-7.94a1.412,1.412,0,0,1-1.99,0l-10.08-10.03a1.032,1.032,0,0,0-1.46,1.46l10.84,10.81a1.377,1.377,0,0,1,.42.99,1.41,1.41,0,0,1-2.41,1l-1.84-1.83-0.03-.03-0.01-.01-8.41-8.38a1.039,1.039,0,0,0-1.47,1.47l8.44,8.4a1.417,1.417,0,0,1,.4.99,1.367,1.367,0,0,1-.41.99,1.418,1.418,0,0,1-2,0l-9.15-9.12a1.039,1.039,0,1,0-1.47,1.47l6.78,6.75,0.01,0.01a1.405,1.405,0,0,1-1,2.4,2.452,2.452,0,0,1-.27-0.02,3.722,3.722,0,0,0-3.69-4.27h-0.09a3.723,3.723,0,0,0-3.73-3.81c-0.06,0-.12.01-0.18,0.01a3.728,3.728,0,0,0-4.58-3.81l-0.74-.74a14.134,14.134,0,0,1-3.94-7.46,5.214,5.214,0,0,0-1.46-2.74l-1.83-1.83,10.41-10.37,2.59,2.59a5.329,5.329,0,0,0,3.75,1.52,5.474,5.474,0,0,0,1.86-.32,4.689,4.689,0,0,1,.91-0.24l-6.43,6.41a4.128,4.128,0,0,0,0,5.86,4.165,4.165,0,0,0,5.89,0l3.23-3.21,0.87,0.87h0l0.04,0.04,0.03,0.03h0l0.03,0.03,12.17,12.13a1.377,1.377,0,0,1,.42.99A1.4,1.4,0,0,1,1188.27,1251.51Zm6.54-15.43a4.814,4.814,0,0,0-1.36,2.58,14.217,14.217,0,0,1-3.96,7.55l-0.8.79-6.57-6.54c0.14,0.01.29,0.02,0.43,0.02a5.37,5.37,0,0,0,2.02-.39,1.036,1.036,0,1,0-.78-1.92c-2.67,1.09-5.88-1.91-6.23-2.26a0.035,0.035,0,0,1-.02-0.01l-0.04-.04h0l-0.03-.03h0l-0.88-.87,0.99-.99a1.032,1.032,0,0,0-1.46-1.46l-1.73,1.71h0v0.01l-3.96,3.94a2.094,2.094,0,0,1-2.95,0,2.076,2.076,0,0,1,0-2.94l6.83-6.81a7.045,7.045,0,0,1,1.26-.99,6.841,6.841,0,0,1,3.61-1.02,6.937,6.937,0,0,1,2.84.61,5.349,5.349,0,0,0,5.95-1.05l1.44-1.44,8.5,8.46Zm5.85-3.27-11.14-11.1,4.83-4.82,11.14,11.1Zm1.04-5.06a1.03,1.03,0,1,1-1.03,1.03A1.031,1.031,0,0,1,1201.7,1227.75Zm-51.9,1.02a1.035,1.035,0,1,1-1.04,1.03A1.037,1.037,0,0,1,1149.8,1228.77Z" transform="translate(-1143.03 -1214.03)"/>
</svg>
