<svg xmlns="http://www.w3.org/2000/svg" width="57" height="57" viewBox="0 0 57 57">
  <metadata><?xpacket begin="﻿" id="W5M0MpCehiHzreSzNTczkc9d"?>
<x:xmpmeta xmlns:x="adobe:ns:meta/" x:xmptk="Adobe XMP Core 5.6-c138 79.159824, 2016/09/14-01:09:01        ">
   <rdf:RDF xmlns:rdf="http://www.w3.org/1999/02/22-rdf-syntax-ns#">
      <rdf:Description rdf:about=""/>
   </rdf:RDF>
</x:xmpmeta>
                                                                                                    
                                                                                                    
                                                                                                    
                                                                                                    
                                                                                                    
                                                                                                    
                                                                                                    
                                                                                                    
                                                                                                    
                                                                                                    
                                                                                                    
                                                                                                    
                                                                                                    
                                                                                                    
                                                                                                    
                                                                                                    
                                                                                                    
                                                                                                    
                                                                                                    
                                                                                                    
                           
<?xpacket end="w"?></metadata>
<defs>
    <style>
      .cls-1 {
        fill-rule: evenodd;
      }
    </style>
  </defs>
  <path id="Money" class="cls-1" d="M397.046,1247.91a1.11,1.11,0,1,1-1.127,1.11A1.12,1.12,0,0,1,397.046,1247.91Zm47.582-6.6a4.391,4.391,0,0,0-5.769-2.2h-0.017l-7.27,3.32a1.1,1.1,0,0,0-.552,1.47,1.141,1.141,0,0,0,1.5.55l7.26-3.31a2.137,2.137,0,0,1,2.79,1.07,2.077,2.077,0,0,1,.038,1.61,2.112,2.112,0,0,1-1.122,1.16l-14.877,6.49a8.736,8.736,0,0,1-7.33-.17l-5.446-2.67a10.98,10.98,0,0,0-9.242-.21l-0.094.04-4.059-9.08,5.638-2.46a11.372,11.372,0,0,1,8.447-.26l10.952,3.97a1.939,1.939,0,0,1,1.178,2.44,1.967,1.967,0,0,1-2.481,1.21l-8.47-2.83a1.13,1.13,0,0,0-1.428.7,1.111,1.111,0,0,0,.706,1.41l8.469,2.83a4.168,4.168,0,0,0,2.8-7.85l-10.952-3.97a13.614,13.614,0,0,0-10.135.32l-5.675,2.47a2.812,2.812,0,0,0-1.34-1.07,2.856,2.856,0,0,0-2.168.05l-7.25,3.16a1.122,1.122,0,0,0-.672,1.02L388,1259.88a1.1,1.1,0,0,0,.535.95,1.125,1.125,0,0,0,1.1.05l14.183-7.08a2.791,2.791,0,0,0,1.467-1.53,2.754,2.754,0,0,0,.09-1.76l0.121-.05a8.7,8.7,0,0,1,7.33.16l5.446,2.68a10.98,10.98,0,0,0,9.242.2l14.878-6.49A4.306,4.306,0,0,0,444.628,1241.31Zm-41.444,10.15a0.549,0.549,0,0,1-.306.32c-0.018.01-12.618,6.29-12.618,6.29l0.014-4.78,3.264-1.59a1.1,1.1,0,0,0,.515-1.49,1.124,1.124,0,0,0-1.508-.5l-2.264,1.09,0.027-9.55,6.58-2.87a0.568,0.568,0,0,1,.443-0.01,0.549,0.549,0,0,1,.321.3l5.522,12.35A0.565,0.565,0,0,1,403.184,1251.46Zm26.808-33.49h-2.067a1.394,1.394,0,0,1-1.4-1.38v-1.19a1.4,1.4,0,0,1,1.4-1.39h2.29a1.18,1.18,0,0,1,1.181,1.17,1.127,1.127,0,0,0,2.254,0,3.416,3.416,0,0,0-3.435-3.39h-0.13v-1.36a1.127,1.127,0,0,0-2.254,0v1.36a3.639,3.639,0,0,0-3.564,3.61v1.19a3.639,3.639,0,0,0,3.658,3.61h2.067a1.4,1.4,0,0,1,1.4,1.39v1.18a1.4,1.4,0,0,1-1.4,1.39H427.7a1.172,1.172,0,0,1-1.181-1.16,1.127,1.127,0,0,0-2.254,0,3.416,3.416,0,0,0,3.435,3.39h0.129v1.35a1.127,1.127,0,0,0,2.254,0v-1.35a3.641,3.641,0,0,0,3.565-3.62v-1.18A3.647,3.647,0,0,0,429.992,1217.97ZM428.958,1204a15.121,15.121,0,1,0,15.307,15.12A15.229,15.229,0,0,0,428.958,1204Zm0,28.01a12.891,12.891,0,1,1,13.053-12.89A12.985,12.985,0,0,1,428.958,1232.01Z" transform="translate(-388 -1204)"/>
</svg>
