<svg xmlns="http://www.w3.org/2000/svg" width="54" height="54" viewBox="0 0 54 54">
  <metadata><?xpacket begin="﻿" id="W5M0MpCehiHzreSzNTczkc9d"?>
<x:xmpmeta xmlns:x="adobe:ns:meta/" x:xmptk="Adobe XMP Core 5.6-c138 79.159824, 2016/09/14-01:09:01        ">
   <rdf:RDF xmlns:rdf="http://www.w3.org/1999/02/22-rdf-syntax-ns#">
      <rdf:Description rdf:about=""/>
   </rdf:RDF>
</x:xmpmeta>
                                                                                                    
                                                                                                    
                                                                                                    
                                                                                                    
                                                                                                    
                                                                                                    
                                                                                                    
                                                                                                    
                                                                                                    
                                                                                                    
                                                                                                    
                                                                                                    
                                                                                                    
                                                                                                    
                                                                                                    
                                                                                                    
                                                                                                    
                                                                                                    
                                                                                                    
                                                                                                    
                           
<?xpacket end="w"?></metadata>
<defs>
    <style>
      .cls-1 {
        fill-rule: evenodd;
      }
    </style>
  </defs>
  <path id="qualification" class="cls-1" d="M967.265,1237.54a12.983,12.983,0,0,0,2.933,8.16,8.915,8.915,0,0,0,14.4,0,13.007,13.007,0,0,0,2.923-8.15v-0.02a0.844,0.844,0,0,0-1.688,0v0.02a11.235,11.235,0,0,1-2.536,7.07,7.234,7.234,0,0,1-11.8,0,11.263,11.263,0,0,1-2.544-7.08v-1.01c0-2.09,1.4-4.93,1.933-5.93a29.823,29.823,0,0,1,9.714.43,0.569,0.569,0,0,0,.182.02,0.84,0.84,0,0,0,.181-1.66,31.411,31.411,0,0,0-10.646-.42,0.83,0.83,0,0,0-.691.42,24.661,24.661,0,0,0-1.424,3.02,28.608,28.608,0,0,1-.553-4.52c0-2.95,1.869-4.27,3.721-4.27a1.032,1.032,0,0,0,.178-0.02,1.054,1.054,0,0,0,.177.02,0.814,0.814,0,0,0,.51-0.17c1.85-1.41,4.322-1.22,6.718-.82a0.842,0.842,0,1,0,.282-1.66c-2.552-.43-5.458-0.65-7.789.97-0.025,0-.05-0.01-0.076-0.01a5.117,5.117,0,0,0-4,1.81,6.414,6.414,0,0,0-1.4,4.15,48.449,48.449,0,0,0,1.3,8.28v1.37h0Zm24.67,13.69c-0.018,0-.037-0.01-0.055-0.01l-5.02-1.05-1.327-2.02a0.159,0.159,0,0,1-.03-0.04,1.492,1.492,0,0,0-2.126-.26c0,0.01-.011.01-0.016,0.02l-5.969,5.14-5.969-5.14c0-.01-0.01-0.01-0.016-0.02a1.492,1.492,0,0,0-2.126.26,0.159,0.159,0,0,1-.029.04l-1.327,2.02-5.02,1.05c-0.019,0-.037.01-0.055,0.01a6.4,6.4,0,0,0-3.592,2.62,7.24,7.24,0,0,0-1.258,4.04v1.59a2.652,2.652,0,0,0,2.762,2.52h33.26a2.652,2.652,0,0,0,2.762-2.52v-1.59a7.232,7.232,0,0,0-1.258-4.04A6.4,6.4,0,0,0,991.935,1251.23Zm-7.662-1.92,1.048,1.59-4.193,5.76-2.5-2.49Zm-7.434,9.32h1.107l0.336,1.68H976.5Zm1.4-2.15a0.426,0.426,0,0,1-.281.46H976.83a0.427,0.427,0,0,1-.282-0.46v-0.32l0.844-.85,0.844,0.85v0.32h0Zm-7.725-7.17,5.642,4.86-2.5,2.49-4.192-5.76Zm-10.824,10.17v-1.59a5.249,5.249,0,0,1,3.592-5.03l4.8-1,4.8,6.59a0.853,0.853,0,0,0,.617.35h0.066a0.839,0.839,0,0,0,.6-0.25l0.984-.98c0.045,0.08.094,0.16,0.148,0.24l-0.5,2.5h-14.02A0.991,0.991,0,0,1,959.687,1259.48Zm35.41,0a0.99,0.99,0,0,1-1.075.83H980l-0.5-2.5c0.054-.08.1-0.16,0.148-0.24l0.983,0.98a0.843,0.843,0,0,0,.6.25H981.3a0.849,0.849,0,0,0,.616-0.35l4.8-6.59,4.8,1a5.248,5.248,0,0,1,3.591,5.03v1.59h0Zm1.715-51.48A15.19,15.19,0,1,0,1012,1223.19,15.2,15.2,0,0,0,996.812,1208Zm0,28.69a13.5,13.5,0,1,1,13.5-13.5A13.518,13.518,0,0,1,996.812,1236.69Zm9.278-20.34a0.037,0.037,0,0,0-.01-0.03v-0.05a0.06,0.06,0,0,1-.01-0.04,0.048,0.048,0,0,1-.01-0.04,0.147,0.147,0,0,1-.02-0.04,0.227,0.227,0,0,1-.01-0.04c-0.01-.01-0.01-0.02-0.02-0.03a0.076,0.076,0,0,0-.02-0.04,0.053,0.053,0,0,0-.02-0.03,0.052,0.052,0,0,0-.02-0.04c-0.01-.01-0.02-0.03-0.03-0.04a0.053,0.053,0,0,0-.02-0.03,0.426,0.426,0,0,0-.12-0.11,0.053,0.053,0,0,0-.02-0.03,0.142,0.142,0,0,0-.04-0.02c-0.01-.01-0.03-0.02-0.04-0.03a0.053,0.053,0,0,1-.03-0.02,0.052,0.052,0,0,1-.04-0.02,0.227,0.227,0,0,0-.04-0.01,0.147,0.147,0,0,0-.04-0.02,0.227,0.227,0,0,0-.04-0.01c-0.01,0-.02-0.01-0.03-0.01s-0.03-.01-0.05-0.01a0.06,0.06,0,0,1-.04-0.01h-0.04c-0.02,0-.05-0.01-0.08-0.01h-5.06a0.845,0.845,0,1,0,0,1.69h3.02l-6.4,6.4-1.934-1.93a0.843,0.843,0,0,0-1.193,0l-6.75,6.75a0.839,0.839,0,0,0,0,1.19,0.837,0.837,0,0,0,1.193,0l6.153-6.15,1.935,1.93a0.786,0.786,0,0,0,.435.23,0.875,0.875,0,0,0,.161.02,0.9,0.9,0,0,0,.162-0.02,0.79,0.79,0,0,0,.435-0.23h0l7-7v3.03a0.84,0.84,0,1,0,1.68,0v-5.15Z" transform="translate(-958 -1208)"/>
</svg>
