<svg xmlns="http://www.w3.org/2000/svg" width="38" height="54" viewBox="0 0 38 54">
  <metadata><?xpacket begin="﻿" id="W5M0MpCehiHzreSzNTczkc9d"?>
<x:xmpmeta xmlns:x="adobe:ns:meta/" x:xmptk="Adobe XMP Core 5.6-c138 79.159824, 2016/09/14-01:09:01        ">
   <rdf:RDF xmlns:rdf="http://www.w3.org/1999/02/22-rdf-syntax-ns#">
      <rdf:Description rdf:about=""/>
   </rdf:RDF>
</x:xmpmeta>
                                                                                                    
                                                                                                    
                                                                                                    
                                                                                                    
                                                                                                    
                                                                                                    
                                                                                                    
                                                                                                    
                                                                                                    
                                                                                                    
                                                                                                    
                                                                                                    
                                                                                                    
                                                                                                    
                                                                                                    
                                                                                                    
                                                                                                    
                                                                                                    
                                                                                                    
                                                                                                    
                           
<?xpacket end="w"?></metadata>
<defs>
    <style>
      .cls-1 {
        fill-rule: evenodd;
      }
    </style>
  </defs>
  <path id="task" class="cls-1" d="M809.679,1214.96H804.5v-0.87a2.6,2.6,0,0,0-2.593-2.61h-2.676a4.3,4.3,0,0,0-8.452.01H788.1a2.6,2.6,0,0,0-2.593,2.61v0.87h-5.184a4.349,4.349,0,0,0-4.321,4.36v38.31a4.349,4.349,0,0,0,4.321,4.36h29.358a4.349,4.349,0,0,0,4.321-4.36v-38.32A4.349,4.349,0,0,0,809.679,1214.96Zm-22.446-.86a0.87,0.87,0,0,1,.865-0.87h4.32v-0.87a2.593,2.593,0,1,1,5.185,0v0.87h4.32a0.869,0.869,0,0,1,.864.87v4.36H787.233v-4.36Zm25.049,43.54h-0.01a2.6,2.6,0,0,1-2.593,2.62H780.321a2.6,2.6,0,0,1-2.593-2.62v-38.32a2.6,2.6,0,0,1,2.593-2.61h5.184v3.48h19v-3.48h5.185a2.6,2.6,0,0,1,2.592,2.61v38.32h0Zm-31.1-33.96v8.7h8.63v-8.7h-8.63Zm6.913,6.96h-5.185v-5.22H788.1v5.22Zm-6.913,5.23v8.71h8.63v-8.71h-8.63Zm6.913,6.97h-5.185v-5.23H788.1v5.23Zm-6.913,5.22v8.71h8.63v-8.71h-8.63Zm6.913,6.98h-5.185v-5.23H788.1v5.23Zm5.174-27h15.543v1.74H793.272v-1.74Zm0,12.19h15.543v1.74H793.272v-1.74Zm0,12.19h15.543v1.75H793.272v-1.75Zm0.864-37.46h1.728v1.75h-1.728v-1.75Zm3.456,0h1.728v1.75h-1.728v-1.75Zm-6.913,0h1.729v1.75h-1.729v-1.75Z" transform="translate(-776 -1208)"/>
</svg>
