<svg xmlns="http://www.w3.org/2000/svg" width="62" height="58" viewBox="0 0 62 58">
  <metadata><?xpacket begin="﻿" id="W5M0MpCehiHzreSzNTczkc9d"?>
<x:xmpmeta xmlns:x="adobe:ns:meta/" x:xmptk="Adobe XMP Core 5.6-c138 79.159824, 2016/09/14-01:09:01        ">
   <rdf:RDF xmlns:rdf="http://www.w3.org/1999/02/22-rdf-syntax-ns#">
      <rdf:Description rdf:about=""/>
   </rdf:RDF>
</x:xmpmeta>
                                                                                                    
                                                                                                    
                                                                                                    
                                                                                                    
                                                                                                    
                                                                                                    
                                                                                                    
                                                                                                    
                                                                                                    
                                                                                                    
                                                                                                    
                                                                                                    
                                                                                                    
                                                                                                    
                                                                                                    
                                                                                                    
                                                                                                    
                                                                                                    
                                                                                                    
                                                                                                    
                           
<?xpacket end="w"?></metadata>
<defs>
    <style>
      .cls-1 {
        fill-rule: evenodd;
      }
    </style>
  </defs>
  <path id="WORK" class="cls-1" d="M242.052,1241.47a8.117,8.117,0,0,0,3.954-6.94v-6.22a8.178,8.178,0,0,0-6.956-8.03v-6.01a0.9,0.9,0,0,0-.905-0.89h-9.7v-3.59a5.834,5.834,0,0,0-5.861-5.79h-14.12a5.835,5.835,0,0,0-5.861,5.79v3.59h-9.7a0.9,0.9,0,0,0-.905.89v31.76a0.9,0.9,0,0,0,.905.89h7.985a0.9,0.9,0,1,0,0-1.79h-7.079v-18.06a10.938,10.938,0,0,0,6.976,4.67v0.98a2.9,2.9,0,0,0,5.794,0v-0.75h6.993a0.9,0.9,0,1,0,0-1.79h-6.993v-2.19a0.9,0.9,0,0,0-.905-0.9h-3.984a0.9,0.9,0,0,0-.905.9v1.92a9.093,9.093,0,0,1-6.977-8.79v-5.95h43.43v5.03c-0.054.01-.107,0.01-0.161,0.02s-0.124.01-.185,0.01l-0.224.03-0.178.03a1.739,1.739,0,0,0-.225.04l-0.171.03a1.836,1.836,0,0,0-.229.05,0.914,0.914,0,0,0-.16.04,2.126,2.126,0,0,0-.241.07,0.737,0.737,0,0,0-.14.04,1.385,1.385,0,0,0-.268.09l-0.107.03a6.516,6.516,0,0,0-.726.31l-0.073.03c-0.092.05-.184,0.09-0.275,0.14l-0.109.06c-0.077.05-.154,0.09-0.229,0.13-0.041.03-.081,0.05-0.122,0.08-0.069.04-.138,0.09-0.206,0.13l-0.126.09c-0.064.04-.128,0.09-0.191,0.13-0.043.03-.084,0.07-0.126,0.1a1.9,1.9,0,0,0-.18.14c-0.042.03-.083,0.07-0.125,0.1-0.057.05-.114,0.1-0.169,0.15a1.027,1.027,0,0,0-.122.11c-0.054.05-.108,0.1-0.16,0.15l-0.119.12-0.151.15c-0.038.04-.076,0.09-0.113,0.13s-0.1.11-.142,0.16-0.073.09-.109,0.13c-0.045.06-.09,0.11-0.134,0.17s-0.069.09-.1,0.14-0.084.11-.125,0.17-0.065.09-.1,0.14-0.078.12-.116,0.18-0.062.1-.092,0.15-0.072.12-.107,0.18-0.057.1-.084,0.15c-0.034.07-.066,0.13-0.1,0.19s-0.053.11-.078,0.16-0.06.13-.089,0.19-0.048.11-.071,0.17-0.053.13-.079,0.19-0.043.11-.063,0.17-0.047.13-.07,0.2-0.037.11-.055,0.17-0.041.14-.06,0.21-0.032.11-.047,0.17-0.034.14-.051,0.22c-0.012.05-.026,0.11-0.037,0.16-0.016.08-.028,0.15-0.042,0.23-0.009.06-.02,0.11-0.028,0.17-0.013.08-.022,0.16-0.032,0.24-0.006.05-.014,0.1-0.019,0.15-0.009.09-.015,0.18-0.021,0.27,0,0.05-.007.09-0.01,0.14-0.007.13-.01,0.27-0.01,0.41v1.75a10.81,10.81,0,0,1-1.269.11v-2.18a0.9,0.9,0,0,0-.905-0.9H223.4a0.9,0.9,0,0,0-.906.9v2.19H216.59a0.9,0.9,0,1,0,0,1.79H222.5v0.75a2.9,2.9,0,0,0,5.794,0v-0.76a10.777,10.777,0,0,0,1.268-.1v2.67c0,0.13,0,.27.011,0.4,0,0.06.008,0.11,0.012,0.16,0,0.08.01,0.16,0.018,0.24s0.016,0.13.024,0.2,0.016,0.13.026,0.2,0.024,0.14.037,0.21,0.02,0.12.032,0.18,0.033,0.15.051,0.23c0.012,0.05.023,0.1,0.035,0.15,0.021,0.08.044,0.16,0.068,0.24,0.012,0.05.024,0.09,0.037,0.13,0.027,0.09.056,0.18,0.086,0.26,0.012,0.04.023,0.07,0.036,0.11,0.034,0.09.07,0.19,0.108,0.28,0.01,0.02.019,0.05,0.029,0.07,0.043,0.11.089,0.21,0.136,0.31,0.006,0.01.011,0.03,0.017,0.04a8.266,8.266,0,0,0,3.191,3.53,16.914,16.914,0,0,0-6.691,3.66H203.907a0.9,0.9,0,1,0,0,1.79h21.185a14.812,14.812,0,0,0-3.526,9.45v4.74a0.9,0.9,0,0,0,.905.89h6.9a0.9,0.9,0,1,0,0-1.79h-5.99v-3.84a13.176,13.176,0,0,1,4.344-9.62c0.028-.02.056-0.05,0.085-0.07q0.162-.15.329-0.3c0.009-.01.018-0.01,0.026-0.02,0.219-.19.444-0.38,0.674-0.55a1.1,1.1,0,0,1,.126-0.1c0.061-.04.123-0.09,0.185-0.14s0.122-.09.184-0.13a0.346,0.346,0,0,1,.079-0.05,15.488,15.488,0,0,1,4.19-2.07l1.47,2.82-1.964,8.43a0.893,0.893,0,0,0,.271.86l3.8,3.43a0.927,0.927,0,0,0,1.222,0l3.8-3.43a0.891,0.891,0,0,0,.271-0.86l-1.964-8.43,1.47-2.82a15.52,15.52,0,0,1,5.878,3.43,13.177,13.177,0,0,1,4.345,9.62v3.84H232.384a0.9,0.9,0,1,0,0,1.79H253.1a0.9,0.9,0,0,0,.905-0.89v-4.74C254,1249.46,248.85,1243.38,242.052,1241.47ZM202.6,1230.99v-2.11h2.173v3.84a1.087,1.087,0,0,1-2.173,0v-1.73h0Zm20.8-17.61H207.654v-2.95a1.494,1.494,0,0,1,1.5-1.48H221.9a1.494,1.494,0,0,1,1.5,1.48v2.95h0Zm3.24,0h-1.429v-2.95a3.3,3.3,0,0,0-3.308-3.27H209.151a3.294,3.294,0,0,0-3.307,3.27v2.95h-1.43v-3.59a4.028,4.028,0,0,1,4.051-4h14.12a4.028,4.028,0,0,1,4.051,4v3.59Zm-0.155,17.69v1.65a1.086,1.086,0,0,1-2.172,0v-3.84h2.172v2.19h0Zm4.894-2.77a6.371,6.371,0,0,1,6.079-6.32c0.109,0,.218-0.01.329-0.01s0.205,0.01.307,0.01h0.022a6.372,6.372,0,0,1,6.079,6.32v2.13a6.034,6.034,0,0,1-4.154-3.6,0.9,0.9,0,0,0-.783-0.57,0.928,0.928,0,0,0-.858.46c-0.082.15-1.97,3.41-7.022,3.77v-2.19h0Zm9.2,26.16-2.8,2.53-2.795-2.53,1.758-7.54h2.074Zm-5.176-11.58c0.079-.02.158-0.03,0.237-0.05,0.056-.01.113-0.01,0.169-0.02,0.1-.02.2-0.03,0.3-0.05,0.129-.01.258-0.03,0.387-0.04,0.052-.01.1-0.01,0.156-0.02h0.038l0.4-.03a0.882,0.882,0,0,1,.162-0.01h0c0.109-.01.218-0.01,0.327-0.01h0.407c0.11,0,.219,0,0.328.01h0.105c0.159,0.01.317,0.03,0.476,0.04,0.059,0.01.118,0.01,0.177,0.02,0.132,0.01.263,0.03,0.394,0.04,0.1,0.02.194,0.03,0.291,0.05,0.057,0.01.114,0.01,0.171,0.02a1.972,1.972,0,0,0,.236.04l-1.175,2.26h-2.411Zm2.756-2.03H238.1a0.163,0.163,0,0,0-.068.01h-0.02a1.591,1.591,0,0,0-.218-0.01h-0.024a1.591,1.591,0,0,0-.218.01,6.431,6.431,0,0,1-6.174-6.02c0-.1-0.008-0.21-0.008-0.31v-2.25a10.988,10.988,0,0,0,7.689-3.46,7.285,7.285,0,0,0,5.135,3.43v2.28A6.37,6.37,0,0,1,238.158,1240.85Z" transform="translate(-192 -1204)"/>
</svg>
