<?xml version="1.0" standalone="no"?>
<!DOCTYPE svg PUBLIC "-//W3C//DTD SVG 1.1//EN" "http://www.w3.org/Graphics/SVG/1.1/DTD/svg11.dtd" >
<svg>
<metadata>
Created by FontForge 20090622 at Fri May 22 12:28:44 2020
 By deploy user
Copyright (c) Magenta Ltd., 2004
</metadata>
<defs>
<font id="MgOpenModata" horiz-adv-x="595" >
  <font-face 
    font-family="MgOpen Modata"
    font-weight="400"
    font-stretch="normal"
    units-per-em="1000"
    panose-1="0 0 4 0 0 0 0 0 0 0"
    ascent="800"
    descent="-200"
    x-height="554"
    cap-height="742"
    bbox="-133 -237 1097 882"
    underline-thickness="50"
    underline-position="-75"
    unicode-range="U+0020-U+2122"
  />
<missing-glyph horiz-adv-x="270" 
 />
    <glyph glyph-name=".notdef" horiz-adv-x="270" 
 />
    <glyph glyph-name=".null" horiz-adv-x="0" 
 />
    <glyph glyph-name="nonmarkingreturn" horiz-adv-x="270" 
 />
    <glyph glyph-name="uni0020" unicode=" " horiz-adv-x="270" 
 />
    <glyph glyph-name="numbersign" unicode="#" horiz-adv-x="631" 
d="M156 518l28 212q5 37 32 37q14 0 25.5 -11t9.5 -26l-30 -212h140l30 212q5 38 32 38q14 0 24.5 -11t8.5 -27l-28 -212q2 0 17.5 1t26.5 1q65 0 65 -34q0 -33 -44 -33h-73l-25 -162h17q15 1 25 1q66 0 66 -35q0 -36 -70 -36q-12 0 -27.5 1t-18.5 1l-27 -174
q-7 -50 -43 -50q-28 0 -23 38l27 186h-141l-25 -174q-8 -50 -43 -50q-29 0 -24 38l27 186q-2 0 -17.5 -1t-26.5 -1q-71 0 -71 36t73 36q13 0 30.5 -1t19.5 -1l25 162h-74q-38 0 -38 34q0 31 38 31h82zM213 453l-25 -162h141l24 162h-140z" />
    <glyph glyph-name="dollar" unicode="$" horiz-adv-x="533" 
d="M189 770v38q-1 32 21 32q21 0 21 -30v-40q42 0 97 -24q65 -29 65 -65q0 -35 -34 -35q-10 0 -49 24.5t-79 26.5v-252q107 -33 161 -98q47 -57 47 -130q0 -85 -60 -151q-63 -67 -148 -67q0 -11 1 -49q0 -27 -21 -27t-22 30v46q-30 -2 -81 16q-45 16 -73 34q-15 10 -15 29
q0 36 33 36q11 0 56 -24t80 -26v308q-94 23 -144 80q-45 50 -45 116q0 72 52.5 131t136.5 71zM231 72q55 9 90 49.5t35 90.5q0 102 -125 144v-284zM189 697q-49 -9 -78 -42t-29 -74q0 -39 26 -70q29 -34 81 -50v236z" />
    <glyph glyph-name="percent" unicode="%" horiz-adv-x="796" 
d="M539 369q76 0 122 -59q41 -53 41 -129q0 -75 -40 -125q-45 -57 -123 -57q-79 0 -126 59q-43 54 -43 130q0 74 41 124q47 57 128 57zM539 56q48 0 75 38q25 35 25 86q0 53 -26 90q-28 42 -74 42q-48 0 -76 -40q-25 -36 -25 -87q0 -53 25 -89q28 -40 76 -40zM167 398
q-77 0 -124 59q-43 55 -43 131q0 74 41 124q46 55 126 55q78 0 124 -58q42 -52 42 -127t-41 -127q-47 -57 -125 -57zM167 455q48 0 77 39q25 35 25 87t-27 90.5t-75 38.5q-47 0 -74 -39q-25 -35 -25 -87t25 -89q28 -40 74 -40zM183 35l272 698q11 30 39 30q30 0 30 -32
q0 -12 -6 -26l-279 -705q-5 -13 -23 -13q-36 0 -36 32q0 8 3 16z" />
    <glyph glyph-name="ampersand" unicode="&#x26;" horiz-adv-x="724" 
d="M243 502q50 16 76 51q25 31 25 67q0 35 -23 59.5t-62 24.5q-70 0 -70 -76t54 -126zM472 108q-86 -130 -222 -130q-99 0 -174.5 68t-75.5 162q0 141 176 253q-63 66 -63 153q0 65 37.5 109.5t103.5 44.5q72 0 119 -48q43 -46 43 -109q0 -113 -124 -166l188 -214l60 100
q22 39 50 39q23 0 30 -24q8 -25 -11 -55l-77 -126l89 -98q9 -10 9 -24q0 -17 -12.5 -31t-27.5 -14q-14 0 -26 12zM217 404q-136 -90 -136 -197q0 -66 50.5 -112t119.5 -46q111 0 181 116z" />
    <glyph glyph-name="quotesingle" unicode="'" horiz-adv-x="243" 
d="M144 707l-65 -147q-12 -27 -39 -27q-15 0 -27.5 10t-12.5 24q0 6 2 11l61 154q14 37 45 37q16 0 28.5 -12t12.5 -29q0 -10 -5 -21z" />
    <glyph glyph-name="parenleft" unicode="(" horiz-adv-x="275" 
d="M144 689q-42 -42 -66 -135q-24 -89 -24 -198q0 -121 29 -222q32 -113 92 -172q6 -6 6 -14q0 -10 -9.5 -18t-23.5 -8q-19 0 -37 18q-51 51 -82 172q-29 116 -29 250q0 267 100 367q12 12 24 12q28 0 28 -32q0 -12 -8 -20z" />
    <glyph glyph-name="parenright" unicode=")" horiz-adv-x="275" 
d="M37 689q42 -42 66 -135q24 -89 24 -198q0 -121 -29 -222q-32 -113 -92 -172q-6 -6 -6 -14q0 -10 9.5 -18t23.5 -8q19 0 36 18q52 51 83 172q29 116 29 250q0 267 -100 367q-12 12 -25 12q-27 0 -27 -32q0 -12 8 -20z" />
    <glyph glyph-name="asterisk" unicode="*" 
d="M271 610q-8 116 -8 117q0 28 34 28q33 0 31 -30l-8 -115l50 37q43 29 58 29q14 0 24.5 -10t10.5 -24q0 -21 -27 -32l-100 -41l100 -40q27 -11 27 -38q0 -33 -36 -33q-20 0 -58 30l-49 41q8 -111 8 -113q0 -39 -33 -39q-32 0 -32 44l8 108l-49 -38q-44 -31 -60 -31
q-28 0 -28 31q0 29 22 38l99 40l-99 41q-25 10 -25 33q0 32 33 32q19 0 57 -27z" />
    <glyph glyph-name="plus" unicode="+" 
d="M252 315v187q0 39 38 39q17 0 30.5 -10.5t13.5 -28.5v-187h181q23 0 36.5 -13t13.5 -30q0 -41 -50 -41h-181v-194q0 -17 -13 -27.5t-30 -10.5q-39 0 -39 38v194h-182q-41 0 -41 43q0 41 41 41h182z" />
    <glyph glyph-name="comma" unicode="," horiz-adv-x="242" 
d="M146 64l-76 -177q-11 -25 -33 -25q-14 0 -25.5 11t-11.5 26q0 6 3 13l67 164q14 32 41 32q18 0 29.5 -14t5.5 -30z" />
    <glyph glyph-name="hyphen" unicode="-" horiz-adv-x="372" 
d="M47 315h206q43 0 43 -39q0 -37 -43 -37h-206q-44 0 -44 37q0 15 12 27t32 12z" />
    <glyph glyph-name="period" unicode="." horiz-adv-x="199" 
d="M52 101q24 0 38.5 -16.5t14.5 -37.5q0 -47 -50 -47q-26 0 -41 17q-14 14 -14 35q0 20 13.5 34.5t38.5 14.5z" />
    <glyph glyph-name="slash" unicode="/" 
d="M469 718l-274 -699q-16 -39 -42 -39q-19 0 -27 20q-9 21 3 51l276 681q15 37 38 37q29 0 29 -35q0 -8 -3 -16z" />
    <glyph glyph-name="zero" unicode="0" 
d="M297 767q116 0 185 -124q62 -111 62 -271q0 -157 -60 -265q-66 -120 -179 -120q-121 0 -191 121q-63 109 -63 267q0 159 62 270q69 122 184 122zM305 52q69 0 111 103q39 94 39 225q0 129 -39 216q-43 98 -119 98q-75 0 -120 -100q-41 -91 -41 -221q0 -131 42 -221
q46 -100 127 -100z" />
    <glyph glyph-name="one" unicode="1" 
d="M332 667h-98q-44 0 -44 37q0 36 43 36h123q36 0 44 -18q5 -9 5 -51v-633q0 -38 -36 -38q-37 0 -37 38v629z" />
    <glyph glyph-name="two" unicode="2" 
d="M85 549q0 108 61 166q53 52 135 52q89 0 156 -55q72 -59 72 -148q0 -86 -70 -178l-239 -313h271q37 0 37 -36q0 -37 -37 -37h-321q-55 0 -55 36q0 17 15 37l272 370q41 56 41 112q0 60 -44 100.5t-98 40.5q-48 0 -79 -36q-35 -40 -35 -116q0 -29 -40 -29q-42 0 -42 34z
" />
    <glyph glyph-name="three" unicode="3" 
d="M308 766q84 0 134 -60q45 -55 45 -136q0 -112 -81 -182q109 -51 109 -173q0 -89 -60 -156q-65 -72 -164 -72q-146 0 -206 130q-6 13 -6 27q0 19 11.5 32.5t26.5 13.5q19 0 32 -21q33 -55 46 -67q38 -38 98 -38q66 0 104 43q34 39 34 96q0 56 -33 97q-36 44 -98 48
q-46 2 -46 37q0 36 45.5 36t75.5 45t30 102q0 52 -28 86q-32 38 -93 38q-86 0 -92 -114q-2 -43 -41 -43q-43 0 -43 50q0 84 59 134q56 47 141 47z" />
    <glyph glyph-name="four" unicode="4" 
d="M389 189h-289q-53 0 -53 45q0 20 13 40l261 421q29 47 77 47q27 0 45.5 -19t18.5 -53v-405h48q37 0 37 -40q0 -35 -33 -35l-52 -1v-142q0 -47 -37 -47q-36 0 -36 47v142zM141 265h248v405z" />
    <glyph glyph-name="five" unicode="5" 
d="M260 740h214q17 0 27 -13t10 -30q0 -38 -37 -38h-206l-33 -206q44 21 86 21q123 0 178 -126q51 -120 -1 -235q-58 -126 -208 -126q-127 0 -194 89q-13 16 -13 38q0 40 26 40q16 0 32 -23q19 -26 58 -45q46 -23 96 -23q71 0 111 50q36 45 36 112q0 69 -38 120
q-43 55 -112 55q-23 0 -53.5 -15t-48.5 -15q-38 0 -38 37q0 6 1 14l50 279q7 40 57 40z" />
    <glyph glyph-name="six" unicode="6" 
d="M389 679q-127 -118 -175 -218q61 21 107 21q92 0 146 -74q50 -68 50 -166q0 -103 -55 -175q-61 -80 -165 -80q-107 0 -167 85q-52 75 -52 184q0 30 4 59q35 226 242 413q17 15 34 15t29.5 -12.5t12.5 -27.5q0 -14 -11 -24zM297 413q-65 0 -102 -55q-34 -48 -34 -119
q0 -72 35 -123q38 -56 101 -56q61 0 99 57q33 52 33 125q0 70 -32 117q-36 54 -100 54z" />
    <glyph glyph-name="seven" unicode="7" 
d="M117 741h354q53 0 53 -29q0 -15 -13 -44l-265 -627q-18 -41 -48 -41q-33 0 -33 39q0 16 7 33l250 588h-305q-46 0 -46 41q0 40 46 40z" />
    <glyph glyph-name="eight" unicode="8" 
d="M199 413q-90 56 -90 165q0 76 47 129q52 59 135 59q89 0 144 -58q51 -54 51 -130q0 -104 -89 -165q61 -30 93 -86q30 -51 30 -113q0 -90 -56 -156q-61 -71 -157 -71q-108 0 -173 72q-60 66 -60 158q0 63 31 114q33 56 94 82zM291 372q-62 0 -99 -48q-34 -43 -34 -105
q0 -61 35 -103q39 -47 106 -47q63 0 101 46q33 42 33 102q0 63 -35 106q-40 49 -107 49zM299 445q51 0 80 38q26 34 26 84q0 51 -26 86q-30 40 -80 40q-56 0 -89 -38q-28 -33 -28 -82q0 -51 30 -88q33 -40 87 -40z" />
    <glyph glyph-name="nine" unicode="9" 
d="M336 282q-50 -24 -97 -24q-98 0 -156 78q-54 71 -54 172q0 105 58 177q64 81 176 81q104 0 162 -87q50 -75 50 -185q0 -127 -66 -265q-74 -156 -199 -237q-7 -5 -17 -5q-16 0 -30.5 11.5t-14.5 26.5t15 28q140 122 173 229zM263 693q-67 0 -107 -60q-36 -53 -36 -129
q0 -71 33 -119q37 -54 102 -54q68 0 106 54q34 47 34 119q0 75 -34 129q-38 60 -98 60z" />
    <glyph glyph-name="colon" unicode=":" horiz-adv-x="197" 
d="M50 455q25 0 39 -16.5t14 -37.5q0 -49 -49 -49q-25 0 -40 18q-14 15 -14 37q0 48 50 48zM54 0q-54 0 -54 50q0 21 13.5 36t36.5 15q24 0 40 -17q13 -16 13 -37q0 -47 -49 -47z" />
    <glyph glyph-name="semicolon" unicode=";" horiz-adv-x="211" 
d="M65 445q24 0 38.5 -16t14.5 -38q0 -48 -50 -48q-25 0 -39.5 16.5t-14.5 37.5q0 48 51 48zM-34 -93l60 152q14 36 50 36q38 0 38 -28q0 -5 -2 -10l-70 -170q-8 -18 -34 -18q-16 0 -29.5 8.5t-13.5 20.5q0 5 1 9z" />
    <glyph glyph-name="less" unicode="&#x3c;" 
d="M541 471l-412 -198l404 -196q37 -18 37 -47t-33 -29q-17 0 -39 11l-444 221q-35 17 -35 46t35 45l455 212q29 14 49 5q17 -7 17 -27q0 -27 -34 -43z" />
    <glyph glyph-name="equal" unicode="=" 
d="M62 428h470q37 0 37 -38q0 -35 -37 -35h-470q-36 0 -36 38q0 35 36 35zM62 148q-36 0 -36 36q0 37 36 37h470q37 0 37 -36q0 -37 -37 -37h-470z" />
    <glyph glyph-name="greater" unicode="&#x3e;" 
d="M456 267l-404 206q-33 17 -33 42q0 31 35 31q12 0 24 -5l453 -222q45 -22 45 -47q0 -28 -53 -53l-445 -213q-11 -5 -22 -5q-36 0 -36 35q0 28 32 43z" />
    <glyph glyph-name="question" unicode="?" horiz-adv-x="467" 
d="M157 101q25 0 39 -15.5t14 -37.5q0 -48 -51 -48q-24 0 -38.5 16t-14.5 37q0 48 51 48zM118 239v167q0 28 45 43q66 23 84 37q45 34 45 109q0 39 -40 71t-89 32q-73 0 -106 -77q-7 -17 -25 -17q-32 0 -32 33q0 7 3 16q20 56 71 87q47 29 107 29q77 0 132 -46
q60 -51 60 -136q0 -169 -172 -206v-142q0 -43 -41 -43q-17 0 -29.5 11.5t-12.5 31.5z" />
    <glyph glyph-name="at" unicode="@" horiz-adv-x="848" 
d="M514 510q3 27 17.5 42t30.5 15q28 0 28 -32q0 -26 -48 -149q-47 -117 -42 -155q5 -33 31 -33q45 0 104 77q62 81 62 162q0 120 -106 192q-93 64 -218 64q-147 0 -231 -100q-76 -89 -76 -220q0 -133 77 -227q87 -103 231 -103q73 0 145 23q82 27 125 75q23 25 43 24
q17 0 17 -19q0 -18 -18 -38q-109 -122 -312 -122q-175 0 -280 121q-94 110 -94 266q0 154 93 259q103 118 281 118q159 0 264 -76q116 -83 116 -232q0 -119 -81 -213q-71 -83 -154 -96q-85 -13 -97 65q-42 -66 -126 -66q-61 0 -103 40q-47 45 -47 124q0 110 74 203t162 93
q77 0 132 -82zM229 300q0 -92 72 -92q60 0 115 62q60 67 60 158q0 83 -75 83q-61 0 -113 -56q-59 -63 -59 -155z" />
    <glyph glyph-name="A" unicode="A" horiz-adv-x="648" 
d="M139 231h296l-146 407zM468 149h-354l-37 -111q-13 -39 -45 -39t-32 35q0 9 4 21l226 640q17 45 58 45t58 -45l234 -640q4 -12 4 -22q0 -34 -34 -34q-27 0 -36 25z" />
    <glyph glyph-name="B" unicode="B" horiz-adv-x="547" 
d="M0 692q0 48 41 48h123q122 0 187 -55q56 -48 56 -121q0 -54 -31 -99.5t-80 -60.5q81 -14 127 -72q42 -53 42 -124q0 -84 -55 -143q-61 -65 -162 -65h-190q-33 0 -44 8q-14 9 -14 41v643zM74 73h149q76 0 119 41q40 38 40 93q0 62 -49 107q-54 50 -145 50h-114v-291z
M164 429q80 0 125 37q40 33 40 83q0 47 -37 81q-40 37 -104 37h-114v-238h90z" />
    <glyph glyph-name="C" unicode="C" horiz-adv-x="602" 
d="M518 131q12 12 27 12q14 0 24 -10t10 -25q0 -19 -19 -36q-91 -84 -214 -84q-138 0 -238 101q-108 110 -108 287q0 169 100 279q92 101 225 111q135 10 235 -83q19 -17 19 -36q0 -14 -10 -24.5t-24 -10.5q-15 0 -27 12q-65 65 -158 65q-107 0 -184 -80q-85 -89 -85 -234
q0 -143 84 -231q76 -79 182 -79q95 0 161 66z" />
    <glyph glyph-name="D" unicode="D" horiz-adv-x="629" 
d="M0 692q0 48 58 48h198q138 0 222 -119q76 -108 76 -260q0 -148 -73 -249q-82 -112 -225 -112h-214q-24 0 -33 7.5t-9 33.5v651zM223 667h-149v-594h157q113 0 180 93q60 85 60 205q0 121 -61 204q-69 92 -187 92z" />
    <glyph glyph-name="E" unicode="E" horiz-adv-x="394" 
d="M0 695q0 45 41 45h254q37 0 37 -37q0 -36 -37 -36h-222v-246h214q37 0 37 -38q0 -35 -37 -35h-214v-275h230q43 0 43 -37q0 -36 -43 -36h-262q-27 0 -34 9t-7 36v650z" />
    <glyph glyph-name="F" unicode="F" horiz-adv-x="381" 
d="M0 692q0 48 41 48h255q37 0 37 -37q0 -36 -37 -36h-222v-254h198q37 0 37 -38q0 -36 -37 -36h-198v-309q0 -30 -38 -30q-36 0 -36 30v662z" />
    <glyph glyph-name="G" unicode="G" horiz-adv-x="688" 
d="M554 350h-120q-44 0 -44 36q0 37 47 37h133q43 0 56 -26q9 -17 9 -63q0 -164 -95 -260q-85 -86 -211 -86q-132 0 -225 94q-104 105 -104 281q0 180 106 295q99 108 239 108q122 0 220 -89q17 -16 17 -32q0 -15 -11.5 -24.5t-26.5 -9.5q-17 0 -30 12q-70 64 -160 64
q-106 0 -181 -83q-82 -91 -82 -238q0 -139 79 -224q71 -78 170 -78q92 0 151 70q67 78 63 216z" />
    <glyph glyph-name="H" unicode="H" horiz-adv-x="647" 
d="M0 705q0 37 36 37q37 0 37 -37v-292h413v292q0 37 36 37q38 0 38 -37v-669q0 -37 -38 -37q-36 0 -36 37v303h-413v-303q0 -37 -36 -37q-37 0 -37 37v669z" />
    <glyph glyph-name="I" unicode="I" horiz-adv-x="161" 
d="M0 705q0 37 36 37q37 0 37 -37v-668q0 -37 -37 -37q-36 0 -36 37v668z" />
    <glyph glyph-name="J" unicode="J" horiz-adv-x="401" 
d="M315 705v-556q0 -78 -51 -123q-47 -40 -116 -40q-80 0 -136 51q-12 11 -12 28q0 38 34 38q9 0 42 -23t73 -23q43 0 67 24.5t24 67.5v556q0 37 37 37q38 0 38 -37z" />
    <glyph glyph-name="K" unicode="K" horiz-adv-x="563" 
d="M0 711q0 31 36 31q38 0 38 -31v-282l349 302q11 9 23 9q16 0 28.5 -12.5t12.5 -27.5q0 -14 -10 -23l-338 -289l355 -323q13 -12 13 -27t-11 -26t-27 -11q-18 0 -34 15l-361 340v-324q0 -33 -36 -33q-38 0 -38 33v679z" />
    <glyph glyph-name="L" unicode="L" horiz-adv-x="348" 
d="M0 705q0 37 36 37q37 0 37 -37v-632h191q37 0 37 -36q0 -37 -37 -37h-215q-49 0 -49 57v648z" />
    <glyph glyph-name="M" unicode="M" horiz-adv-x="878" 
d="M232 677l164 -553l173 553q20 65 69 65q51 0 62 -73l103 -624q3 -20 -7 -32t-27 -12q-36 0 -42 40l-92 611l-198 -609q-15 -43 -41 -43q-27 0 -41 43l-190 609l-90 -610q-6 -41 -43 -41q-38 0 -31 46l99 622q11 75 64 75q48 0 68 -67z" />
    <glyph glyph-name="N" unicode="N" horiz-adv-x="638" 
d="M0 698q0 44 36 44q28 0 52 -36l390 -574v571q0 38 36 38q37 0 37 -38v-659q0 -45 -36 -45q-29 0 -50 31l-392 572v-564q0 -39 -36 -39q-37 0 -37 39v660z" />
    <glyph glyph-name="O" unicode="O" horiz-adv-x="717" 
d="M318 765q153 0 243 -122q82 -110 82 -268q0 -157 -81 -266q-90 -121 -244 -121q-149 0 -238 123q-80 110 -80 268q0 157 79 266q88 120 239 120zM318 692q-112 0 -176 -97q-58 -87 -58 -213q0 -129 59 -220q66 -100 175 -100q115 0 181 97q60 87 60 214q0 129 -61 219
q-67 100 -180 100z" />
    <glyph glyph-name="P" unicode="P" horiz-adv-x="506" 
d="M0 701q0 40 41 40h182q112 0 177 -71q58 -63 58 -156q0 -90 -55 -154q-61 -69 -164 -69h-166v-254q0 -37 -36 -37q-37 0 -37 37v664zM199 668h-126v-304h142q79 0 126 47q43 43 43 104q0 62 -46 105q-51 48 -139 48z" />
    <glyph glyph-name="Q" unicode="Q" horiz-adv-x="728" 
d="M534 77q-69 -90 -223 -90q-144 0 -232 125q-79 113 -79 273q0 156 78 262q88 118 241 118q155 0 242 -121q76 -107 76 -267q0 -135 -54 -243q12 -14 64 -70q8 -9 8 -23q0 -15 -10.5 -28t-23.5 -13q-11 0 -21 10zM319 60q105 0 164 74l-54 53q-14 13 -14 29q0 17 12.5 29
t27.5 12q14 0 24 -11l47 -47q32 84 32 185q0 129 -54 211q-63 97 -185 97q-114 0 -180 -98q-59 -87 -59 -214q0 -129 60 -220q67 -100 179 -100z" />
    <glyph glyph-name="R" unicode="R" horiz-adv-x="508" 
d="M0 701q0 40 57 40h150q112 0 175 -59q55 -52 55 -131q0 -78 -52 -135q-56 -61 -146 -61h-67l249 -288q13 -15 13 -33q0 -36 -33 -36q-19 0 -37 21l-291 336v-310q0 -46 -36 -46q-37 0 -37 46v656zM215 668h-142v-240h142q70 0 113 39q38 34 38 84q0 48 -37 81
q-42 36 -114 36z" />
    <glyph glyph-name="S" unicode="S" horiz-adv-x="518" 
d="M329 652q-50 37 -118 37q-52 0 -85 -25q-37 -29 -37 -83q0 -57 92 -102q156 -76 171 -87q92 -67 92 -177q0 -109 -75 -171q-68 -57 -170 -57q-95 0 -172 51q-27 18 -27 44q0 34 34 34q17 0 35 -12q68 -42 145 -42q65 0 105 34q45 39 45 114q0 87 -91 135l-168 76
q-91 53 -91 152q0 93 60 145q54 47 137 47q88 0 159 -52q28 -21 28 -46q0 -30 -31 -30q-18 0 -38 15z" />
    <glyph glyph-name="T" unicode="T" horiz-adv-x="501" 
d="M187 668h-147q-40 0 -40 36q0 37 40 37h369q38 0 38 -37q0 -36 -38 -36h-148v-626q0 -42 -36 -42q-38 0 -38 42v626z" />
    <glyph glyph-name="U" unicode="U" horiz-adv-x="652" 
d="M0 698q0 43 41 43q40 0 40 -43v-445q0 -115 105 -166q98 -48 195 -5q105 48 105 171v445q0 43 41 43t41 -43v-453q0 -120 -90 -192q-81 -65 -198 -65q-114 0 -193 64q-87 71 -87 193v453z" />
    <glyph glyph-name="V" unicode="V" horiz-adv-x="630" 
d="M77 713l206 -589l204 589q10 29 35 29q16 0 30 -12.5t14 -28.5q0 -6 -3 -12l-223 -627q-22 -63 -57 -63q-31 0 -51 54l-229 636q-3 9 -3 18q0 36 38 36q28 0 39 -30z" />
    <glyph glyph-name="W" unicode="W" horiz-adv-x="875" 
d="M77 705l103 -613l170 612q11 38 53 38t52 -38l162 -612l101 611q7 41 43 41q18 0 30 -13.5t8 -34.5l-116 -645q-9 -52 -62 -52q-43 0 -53 36l-165 601l-164 -585q-14 -51 -66 -51q-51 0 -58 43l-114 653q-4 21 8 33.5t29 12.5q33 0 39 -37z" />
    <glyph glyph-name="X" unicode="X" horiz-adv-x="632" 
d="M234 407l-196 276q-9 13 -9 25q0 15 10.5 24.5t24.5 9.5q20 0 33 -18l183 -251l161 250q12 18 31 18q14 0 25 -10.5t11 -25.5q0 -12 -8 -23l-180 -266l234 -352q14 -21 14 -37q0 -29 -29 -29q-22 0 -38 23l-225 327l-209 -326q-15 -24 -38 -24q-29 0 -29 30q0 16 12 34z
" />
    <glyph glyph-name="Y" unicode="Y" horiz-adv-x="538" 
d="M197 348l-190 333q-7 13 -7 26q0 35 33 35q19 0 31 -21l175 -292l171 290q14 23 36 23q33 0 33 -32q0 -11 -6 -21l-201 -341v-305q0 -43 -37 -43q-38 0 -38 43v305z" />
    <glyph glyph-name="Z" unicode="Z" horiz-adv-x="570" 
d="M397 668h-345q-38 0 -38 36q0 37 38 37h402q51 0 51 -33q0 -20 -19 -48l-386 -587h378q39 0 39 -35q0 -38 -39 -38h-443q-35 0 -35 42q0 23 11 39z" />
    <glyph glyph-name="bracketleft" unicode="[" horiz-adv-x="240" 
d="M0 709q0 49 41 49h73q32 0 32 -36q0 -30 -31 -30l-42 1v-691h42q31 0 31 -31q0 -34 -32 -34h-73q-41 0 -41 49v723z" />
    <glyph glyph-name="backslash" unicode="\" horiz-adv-x="444" 
d="M76 717l272 -682q2 -5 2 -11q0 -13 -10.5 -24t-24.5 -11q-26 0 -41 38l-271 682q-3 8 -3 15q0 31 31 31q30 0 45 -38z" />
    <glyph glyph-name="bracketright" unicode="]" horiz-adv-x="240" 
d="M73 685q-12 0 -42 -1q-31 0 -31 32q0 34 31 34h75q40 0 40 -49v-715q0 -49 -40 -49h-75q-31 0 -31 37q0 28 26 28h47v683z" />
    <glyph glyph-name="asciicircum" unicode="^" 
d="M343 725l215 -394q8 -15 8 -30q0 -35 -32 -35q-30 0 -52 41l-180 337l-190 -337q-22 -40 -53 -40q-30 0 -30 33q0 14 9 31l223 394q14 25 41 25t41 -25z" />
    <glyph glyph-name="underscore" unicode="_" horiz-adv-x="503" 
d="M0 -129q-38 0 -38 33t38 33h499q39 0 39 -34q0 -32 -39 -32h-499z" />
    <glyph glyph-name="grave" unicode="`" horiz-adv-x="243" 
d="M147 707l-68 -154q-10 -24 -40 -24q-39 0 -39 29q0 5 3 11l67 156q10 22 37 22q16 0 29 -8.5t13 -21.5q0 -5 -2 -10z" />
    <glyph glyph-name="a" unicode="a" horiz-adv-x="548" 
d="M229 50q77 0 124 72q42 65 42 157q0 89 -41 150q-46 68 -125 68q-71 0 -113 -69q-37 -63 -37 -154t37 -154q42 -70 113 -70zM229 573q50 0 96.5 -26t67.5 -65q0 14 -1 47q0 48 38 48q37 0 37 -46v-510q0 -30 -36 -30t-37 28.5t-1 42.5q-35 -44 -79 -60q-36 -14 -99 -14
q-104 0 -164 86q-53 77 -53 192q0 122 59 210q65 97 172 97z" />
    <glyph glyph-name="b" unicode="b" horiz-adv-x="546" 
d="M0 701q0 39 37 39t37 -39v-223q63 95 165 95q109 0 174 -93q59 -83 59 -203q0 -118 -58 -199q-64 -91 -175 -91q-106 0 -165 80v-38q0 -19 -11.5 -30t-26.5 -11q-36 0 -36 42v671zM239 52q71 0 112 69q36 62 36 153q0 93 -37 159q-42 73 -111 73q-77 0 -122 -72
q-41 -64 -41 -156t40 -155q46 -71 123 -71z" />
    <glyph glyph-name="c" unicode="c" horiz-adv-x="437" 
d="M349 460q-9 0 -39.5 17.5t-61.5 17.5q-78 0 -125 -70q-43 -63 -43 -152q0 -85 40 -142q45 -64 124 -64q26 0 63 12.5t44 12.5q37 0 37 -35q0 -22 -19 -38q-39 -32 -114 -32q-121 0 -192 91q-63 81 -63 200t64 203q70 92 189 92q26 0 60 -9q40 -11 61 -29q17 -14 17 -34
q0 -16 -12 -28.5t-30 -12.5z" />
    <glyph glyph-name="d" unicode="d" horiz-adv-x="552" 
d="M395 480v222q0 39 38 39q36 0 36 -39v-683q0 -34 -36 -34q-38 0 -38 35v47q-52 -81 -163 -81t-175 89q-57 81 -57 198q0 121 59 206q65 94 173 94q90 0 163 -93zM232 497q-71 0 -113 -70q-39 -63 -39 -153q0 -88 38 -148q42 -67 114 -67q79 0 126 68q41 62 41 150
q0 90 -42 152q-46 68 -125 68z" />
    <glyph glyph-name="e" unicode="e" horiz-adv-x="537" 
d="M242 574q107 0 169 -67.5t62 -182.5q0 -81 -26 -81h-362q0 -71 52.5 -131t120.5 -60q41 0 80 22q19 10 56 39q27 22 39 22q15 0 26 -12t11 -26q0 -12 -7 -20q-71 -90 -205 -90q-123 0 -195 92q-63 81 -63 201q0 119 62 202q67 92 180 92zM85 319h313q0 88 -48 139
q-43 46 -106 46t-108 -46q-49 -52 -51 -139z" />
    <glyph glyph-name="f" unicode="f" horiz-adv-x="297" 
d="M88 479h-47q-41 0 -41 36q0 39 41 39h47v96q0 92 81 92h65q44 0 44 -35q0 -33 -44 -33q-47 0 -56 -4q-17 -8 -17 -46v-70q16 0 64 1q41 0 41 -38q0 -39 -43 -39l-62 1v-443q0 -37 -37 -37q-36 0 -36 37v443z" />
    <glyph glyph-name="g" unicode="g" horiz-adv-x="555" 
d="M244 506q-75 0 -119 -69q-39 -62 -39 -153q0 -93 40 -158q44 -73 118 -73t118 72q40 64 40 156t-39 155q-44 70 -119 70zM399 489v54q0 33 36 33q38 0 38 -35v-528q0 -109 -63 -174.5t-172 -65.5q-124 0 -201 65q-18 16 -18 39q0 35 31 35q10 0 22 -6l67 -36
q52 -23 105 -23q155 0 155 223q-19 -39 -66 -62q-41 -20 -89 -20q-115 0 -183 92q-61 83 -61 202q0 118 61 200q68 91 183 91q46 0 89 -22.5t66 -61.5z" />
    <glyph glyph-name="h" unicode="h" horiz-adv-x="496" 
d="M0 702q0 39 36 39q37 0 37 -39v-206q57 76 153 76q77 0 132 -50q60 -54 60 -140v-346q0 -37 -37 -37q-36 0 -36 37v314q0 73 -42 115q-38 38 -93 38t-94 -38q-43 -43 -43 -115v-314q0 -37 -37 -37q-36 0 -36 37v666z" />
    <glyph glyph-name="i" unicode="i" horiz-adv-x="180" 
d="M51 742q24 0 38.5 -16.5t14.5 -37.5q0 -48 -54 -48q-23 0 -36.5 16.5t-13.5 37.5q0 48 51 48zM15 536q0 37 36 37q38 0 38 -37v-499q0 -38 -37 -38t-37 38v499z" />
    <glyph glyph-name="j" unicode="j" horiz-adv-x="180" 
d="M51 742q24 0 38.5 -16.5t14.5 -37.5q0 -48 -51 -48q-24 0 -38.5 16t-14.5 38q0 48 51 48zM15 536q0 38 37 38t37 -38v-731q0 -37 -38 -37q-36 0 -36 37v731z" />
    <glyph glyph-name="k" unicode="k" horiz-adv-x="460" 
d="M0 703q0 37 37 37q36 0 36 -37v-339l238 189q11 9 24 9q15 0 27 -12t12 -28q0 -20 -21 -36l-223 -171l248 -238q24 -23 24 -46q0 -34 -35 -34q-24 0 -47 23l-247 236v-220q0 -36 -37 -36q-36 0 -36 36v667z" />
    <glyph glyph-name="l" unicode="l" horiz-adv-x="157" 
d="M0 704q0 38 36 38q38 0 38 -38v-667q0 -38 -37 -38t-37 38v667z" />
    <glyph glyph-name="m" unicode="m" horiz-adv-x="811" 
d="M0 530q0 44 37 44q38 0 37 -44l-1 -36q57 79 146 79q99 0 151 -95q63 95 176 95q76 0 130 -47q57 -50 57 -130v-358q0 -36 -37 -36q-38 0 -38 36v326q0 63 -36 99q-32 33 -80 33q-55 0 -95 -40q-45 -44 -45 -117v-301q0 -37 -36 -37q-37 0 -37 37v326q0 62 -36 98
q-33 32 -81 32q-55 0 -95 -39q-44 -44 -44 -116v-301q0 -37 -36 -37q-37 0 -37 37v492z" />
    <glyph glyph-name="n" unicode="n" horiz-adv-x="497" 
d="M0 539q0 34 36 34q37 0 38 -36q1 -40 0 -51q54 87 160 87q75 0 128 -49q58 -53 58 -144v-344q0 -37 -38 -37q-37 0 -37 37v336q0 58 -37 93q-35 31 -85 31q-59 0 -101 -41q-48 -46 -48 -124v-295q0 -37 -38 -37q-36 0 -36 37v503z" />
    <glyph glyph-name="o" unicode="o" horiz-adv-x="560" 
d="M242 573q113 0 181 -94q61 -84 61 -205q0 -117 -60 -197q-66 -89 -182 -89q-115 0 -182 92q-60 82 -60 201t60 201q67 91 182 91zM242 506q-77 0 -120 -68q-38 -60 -38 -150q0 -93 40 -161q45 -74 118 -74q77 0 120 67q39 59 39 148q0 94 -42 163q-45 75 -117 75z" />
    <glyph glyph-name="p" unicode="p" horiz-adv-x="546" 
d="M0 537q0 37 38 37q37 0 37 -41l-1 -55q75 95 157 95q114 0 182 -93q61 -85 61 -205q0 -118 -60 -199q-67 -90 -183 -90q-86 0 -157 81v-261q0 -37 -38 -37q-36 0 -36 37v731zM231 51q73 0 116 72q39 64 39 157q0 92 -38 155q-43 71 -117 71q-75 0 -118 -70
q-39 -62 -39 -154q0 -93 40 -158q44 -73 117 -73z" />
    <glyph glyph-name="q" unicode="q" horiz-adv-x="551" 
d="M241 573q97 0 154 -95q0 12 1 50q0 47 37 47t37 -43v-726q0 -37 -38 -37q-37 0 -37 37v264q-54 -82 -154 -82q-112 0 -180 94q-61 85 -61 205q0 118 59 197q67 89 182 89zM241 506q-75 0 -118 -69q-39 -61 -39 -151q0 -94 40 -160q44 -73 117 -73q74 0 117 71
q39 63 39 154q0 92 -39 157q-44 71 -117 71z" />
    <glyph glyph-name="r" unicode="r" horiz-adv-x="311" 
d="M0 532q0 42 37 42q36 0 36 -40v-71q69 110 130 110q22 0 37.5 -15t15.5 -38q0 -25 -48 -43q-64 -24 -87 -45q-48 -44 -48 -132v-262q0 -37 -36 -37q-37 0 -37 37v494z" />
    <glyph glyph-name="s" unicode="s" horiz-adv-x="474" 
d="M61 130q19 -26 69 -47.5t97 -21.5q96 0 96 89q0 46 -79 84l-149 68q-80 47 -80 116q0 78 55 119q48 36 125 36q108 0 179 -59q16 -14 16 -35q0 -39 -32 -39q-11 0 -23 7q-80 51 -161 51q-77 0 -77 -71q0 -32 81 -69q127 -59 150 -74q81 -54 81 -124q0 -82 -62 -129
q-57 -42 -141 -42q-127 0 -195 79q-11 13 -11 31t10.5 32.5t24.5 14.5t26 -16z" />
    <glyph glyph-name="t" unicode="t" horiz-adv-x="315" 
d="M86 486h-50q-36 0 -36 34t34 33h52v151q0 37 37 37t37 -37v-151h49q39 0 39 -34t-37 -34l-51 1v-450q0 -37 -38 -37q-36 0 -36 37v450z" />
    <glyph glyph-name="u" unicode="u" horiz-adv-x="499" 
d="M0 518q0 37 36 37q37 0 37 -37v-323q0 -67 42 -105q38 -35 92 -35q56 0 95 35q43 40 43 105v323q0 37 36 37q37 0 37 -37v-347q0 -114 -108 -161q-101 -44 -202 -1q-108 47 -108 162v347z" />
    <glyph glyph-name="v" unicode="v" horiz-adv-x="479" 
d="M76 512l127 -388l133 389q14 43 44 43q32 0 32 -35q0 -8 -3 -16l-163 -475q-11 -31 -44 -31q-29 0 -40 31l-159 474q-3 9 -3 17q0 33 31 33q32 0 45 -42z" />
    <glyph glyph-name="w" unicode="w" horiz-adv-x="839" 
d="M78 524l124 -400l141 395q12 35 41 35t40 -35l133 -395l136 401q10 31 42 31q37 0 37 -38q0 -13 -6 -28l-167 -452q-14 -37 -43 -37q-30 0 -43 40l-129 404l-130 -407q-13 -38 -48 -38q-36 0 -50 41l-151 448q-5 14 -5 26q0 40 37 40q31 0 41 -31z" />
    <glyph glyph-name="x" unicode="x" horiz-adv-x="521" 
d="M181 299l-142 190q-11 15 -11 29q0 16 11.5 26t26.5 10q24 0 39 -22l122 -175l124 176q15 22 38 22q16 0 27.5 -10t11.5 -25t-12 -30l-147 -185l166 -225q19 -26 19 -47q0 -34 -32 -34q-27 0 -50 32l-150 208l-150 -209q-19 -28 -43 -28q-29 0 -29 31q0 20 17 43z" />
    <glyph glyph-name="y" unicode="y" horiz-adv-x="492" 
d="M173 27l-168 466q-5 13 -5 24q0 37 35 37q32 0 43 -35l128 -395l141 400q11 31 42 31q36 0 36 -36q0 -10 -5 -22l-247 -691q-12 -34 -43 -34q-34 0 -34 36q0 10 4 22z" />
    <glyph glyph-name="z" unicode="z" horiz-adv-x="475" 
d="M50 554h305q45 0 45 -31q0 -22 -21 -52l-280 -398h280q37 0 37 -36q0 -37 -37 -37h-321q-58 0 -58 36q0 19 18 45l270 398h-238q-37 0 -37 38q0 37 37 37z" />
    <glyph glyph-name="braceleft" unicode="{" horiz-adv-x="361" 
d="M0 351q0 17 16.5 24t33.5 13q54 22 54 156q0 35 -4 79.5l-4 44.5q0 59 44 74q21 8 95 8q13 0 22.5 -10t9.5 -21q0 -26 -43 -26q-26 0 -37 -8q-17 -12 -17 -49q0 -16 1 -49t1 -50q0 -142 -84 -189q84 -25 84 -188q0 -18 -1 -46.5t-1 -37.5q0 -51 22 -66q10 -7 42.5 -8.5
t32.5 -27.5q0 -29 -32 -29q-77 0 -100 11q-39 19 -39 87q0 11 2.5 52t2.5 67q0 132 -51 156q-17 4 -33.5 8.5t-16.5 24.5z" />
    <glyph glyph-name="bar" unicode="|" horiz-adv-x="167" 
d="M0 774q0 43 37 43q36 0 36 -43v-755q0 -38 -37 -38q-36 0 -36 38v755z" />
    <glyph glyph-name="braceright" unicode="}" horiz-adv-x="361" 
d="M267 351q0 17 -16 24t-33 13q-55 22 -55 156q0 35 4 79.5l4 44.5q0 59 -44 74q-20 8 -94 8q-13 0 -23 -10t-10 -21q0 -26 43 -26q26 0 37 -8q18 -12 18 -49q0 -16 -1 -49t-1 -50q0 -142 83 -189q-83 -25 -83 -188q0 -18 1 -46.5t1 -37.5q0 -51 -22 -66q-11 -7 -43.5 -8.5
t-32.5 -27.5q0 -29 33 -29q77 0 100 11q38 19 38 87q0 11 -2 52t-2 67q0 132 51 156q17 4 33 8.5t16 24.5z" />
    <glyph glyph-name="asciitilde" unicode="~" horiz-adv-x="583" 
d="M33 186q-33 0 -33 41q0 48 45 83q42 34 91 34q52 0 121.5 -41.5t92.5 -41.5q32 0 55 41t49 41q35 0 35 -44q0 -50 -51 -83q-45 -30 -96 -30q-46 0 -108.5 39.5t-91.5 39.5q-31 0 -60.5 -39.5t-48.5 -39.5z" />
    <glyph glyph-name="quotesinglbase" unicode="&#x201a;" horiz-adv-x="242" 
d="M145 64l-75 -177q-9 -20 -31 -20q-15 0 -27 9.5t-12 23.5q0 6 3 12l67 164q11 26 40 26q15 0 26.5 -8t11.5 -20q0 -5 -3 -10z" />
    <glyph glyph-name="quotedblbase" unicode="&#x201e;" horiz-adv-x="404" 
d="M145 64l-75 -177q-6 -14 -30 -14q-40 0 -40 28q0 5 2 11l68 164q9 21 40 21q37 0 37 -24q0 -4 -2 -9zM308 64l-76 -177q-6 -14 -29 -14q-40 0 -40 28q0 5 2 11l67 164q9 21 40 21q38 0 38 -24q0 -4 -2 -9z" />
    <glyph glyph-name="ellipsis" unicode="&#x2026;" horiz-adv-x="524" 
d="M52 101q24 0 38.5 -16.5t14.5 -37.5q0 -47 -50 -47q-26 0 -41 17q-14 14 -14 35q0 20 13.5 34.5t38.5 14.5zM214 101q25 0 39 -16.5t14 -37.5q0 -47 -49 -47q-26 0 -41 17q-14 14 -14 35q0 20 13.5 34.5t37.5 14.5zM377 101q24 0 38.5 -16.5t14.5 -37.5q0 -47 -49 -47
q-26 0 -42 17q-14 14 -14 35q0 20 14 34.5t38 14.5z" />
    <glyph glyph-name="dagger" unicode="&#x2020;" horiz-adv-x="537" 
d="M406 482h-149v-433q0 -50 -35 -50q-15 0 -26.5 13.5t-11.5 36.5v433h-147q-37 0 -37 38q0 35 37 35h147v161q0 23 11.5 36.5t26.5 13.5q35 0 35 -50v-161h149q37 0 37 -38q0 -35 -37 -35z" />
    <glyph glyph-name="daggerdbl" unicode="&#x2021;" horiz-adv-x="537" 
d="M406 265q37 0 37 -38q0 -35 -37 -35h-149v-157q0 -50 -35 -50q-15 0 -26.5 13.5t-11.5 36.5v157h-147q-37 0 -37 38q0 35 37 35h147v275h-147q-37 0 -37 38q0 36 37 36h147v78q0 23 11.5 36t26.5 13q35 0 35 -49v-78h149q37 0 37 -38q0 -36 -37 -36h-149v-275h149z" />
    <glyph glyph-name="perthousand" unicode="&#x2030;" horiz-adv-x="1191" 
d="M539 356q76 0 122 -59q41 -53 41 -129q0 -75 -40 -125q-45 -57 -123 -57q-79 0 -126 59q-43 54 -43 130q0 74 41 125q47 56 128 56zM539 43q48 0 75 39q25 34 25 85q0 53 -26 90q-28 42 -74 42q-48 0 -76 -40q-25 -36 -25 -87q0 -53 25 -89q28 -40 76 -40zM167 388
q-77 0 -124 60q-43 54 -43 131q0 73 41 123q46 56 126 56q78 0 124 -58q42 -52 42 -128q0 -75 -41 -126q-47 -58 -125 -58zM167 445q48 0 77 40q25 35 25 87t-26 88q-28 41 -76 41q-47 0 -73 -37.5t-26 -88.5q0 -52 25 -89q28 -41 74 -41zM183 35l272 698q12 30 38 30
q30 0 30 -33q0 -11 -5 -25q-36 -102 -143 -376q-115 -290 -136 -329q-12 -22 -32 -22q-29 0 -29 33q0 11 5 24zM934 356q76 0 122 -59q41 -53 41 -129q0 -75 -40 -125q-45 -57 -123 -57q-79 0 -126 59q-43 54 -43 130q0 74 42 125q46 56 127 56zM934 43q48 0 75 39
q25 34 25 85q0 53 -26 90q-28 42 -74 42q-48 0 -76 -40q-25 -36 -25 -87q0 -53 26 -89q28 -40 75 -40z" />
    <glyph glyph-name="guilsinglleft" unicode="&#x2039;" horiz-adv-x="650" 
d="M522 469l-412 -198l404 -196q36 -18 36 -46q0 -30 -34 -30q-16 0 -37 10l-444 221q-35 18 -35 47t35 45l455 212q29 13 48 5q18 -8 18 -27q0 -27 -34 -43z" />
    <glyph glyph-name="quoteleft" unicode="&#x2018;" horiz-adv-x="242" 
d="M5 693l65 -148q9 -21 36 -21q16 0 29 8.5t13 21.5q0 5 -2 10l-60 153q-15 38 -45 38q-17 0 -29 -12t-12 -30q0 -10 5 -20z" />
    <glyph glyph-name="quoteright" unicode="&#x2019;" horiz-adv-x="242" 
d="M144 693l-65 -148q-10 -21 -37 -21q-16 0 -29 8.5t-13 21.5q0 5 2 10l60 153q15 38 45 38q17 0 29 -12t12 -30q0 -10 -4 -20z" />
    <glyph glyph-name="quotedblleft" unicode="&#x201c;" horiz-adv-x="405" 
d="M5 693l65 -148q9 -21 36 -21q16 0 29 8.5t13 21.5q0 5 -2 10l-60 153q-15 38 -45 38q-17 0 -29 -12t-12 -30q0 -10 5 -20zM167 693l65 -148q10 -21 37 -21q16 0 29 8.5t13 21.5q0 5 -2 10l-60 153q-15 38 -45 38q-17 0 -29 -12t-12 -30q0 -10 4 -20z" />
    <glyph glyph-name="quotedblright" unicode="&#x201d;" horiz-adv-x="405" 
d="M306 693l-65 -148q-9 -21 -36 -21q-16 0 -29 8.5t-13 21.5q0 5 2 10l60 153q15 38 45 38q16 0 28.5 -12t12.5 -30q0 -10 -5 -20zM144 693l-65 -148q-10 -21 -37 -21q-16 0 -29 8.5t-13 21.5q0 5 2 10l60 153q15 38 45 38q17 0 29 -12t12 -30q0 -10 -4 -20z" />
    <glyph glyph-name="bullet" unicode="&#x2022;" horiz-adv-x="552" 
d="M229 576q108 0 171 -72q58 -65 58 -159t-58 -159q-63 -73 -171 -73t-172 73q-57 65 -57 159t57 159q64 72 172 72z" />
    <glyph glyph-name="endash" unicode="&#x2013;" horiz-adv-x="686" 
d="M43 315h506q43 0 43 -39q0 -37 -43 -37h-506q-43 0 -43 37q0 15 11.5 27t31.5 12z" />
    <glyph glyph-name="emdash" unicode="&#x2014;" horiz-adv-x="884" 
d="M43 315h704q43 0 43 -39q0 -37 -43 -37h-704q-43 0 -43 37q0 15 11.5 27t31.5 12z" />
    <glyph glyph-name="trademark" unicode="&#x2122;" horiz-adv-x="676" 
d="M92 718h-74q-18 0 -18 19q0 17 18 17h185q19 0 19 -18t-19 -18h-74v-317q0 -25 -18 -25q-19 0 -19 25v317zM298 734l82 -288l86 288q9 27 35 27t31 -31l50 -327q3 -22 -17 -22q-18 0 -21 20l-45 309l-99 -309q-7 -22 -20 -22q-14 0 -21 22l-95 309l-45 -309
q-3 -21 -21 -21q-19 0 -16 23l50 327q4 31 31 31t35 -27z" />
    <glyph glyph-name="guilsinglright" unicode="&#x203a;" horiz-adv-x="650" 
d="M437 267l-404 206q-33 17 -33 42q0 31 35 31q12 0 24 -5l453 -222q44 -22 44 -47q0 -28 -52 -53l-445 -213q-11 -5 -22 -5q-36 0 -36 35q0 28 32 43z" />
    <glyph glyph-name="uni00A0" unicode="&#xa0;" horiz-adv-x="32767" 
 />
    <glyph glyph-name="sterling" unicode="&#xa3;" horiz-adv-x="646" 
d="M151 348h-114q-37 0 -37 35q0 38 37 38h90q-54 77 -54 154q0 76 54.5 125.5t156.5 49.5q180 0 245 -164q4 -10 4 -19q0 -17 -11 -29t-25 -12q-25 0 -39 31q-28 58 -47 77q-43 42 -127 42q-123 0 -123 -107q0 -70 47 -148h134q36 0 36 -37q0 -36 -36 -36h-115
q16 -46 16 -87q0 -96 -100 -185h372q37 0 37 -38q0 -36 -37 -36h-437q-41 0 -41 35q0 20 33 55q47 50 61 72q32 50 32 108q0 36 -12 76z" />
    <glyph glyph-name="currency" unicode="&#xa4;" horiz-adv-x="771" 
d="M337 727q-61 0 -96 -53q-31 -47 -31 -117q0 -74 33 -126q35 -58 94 -58q61 0 96 52q31 46 31 116q0 74 -33 127q-36 59 -94 59zM663 792l-146 -146q12 -10 12 -64q0 -49 -9 -115l143 -142q14 -14 14 -32q0 -15 -10.5 -26t-25.5 -11q-16 0 -32 15l-123 124
q-54 -75 -148 -75q-93 0 -147 74l-124 -123q-15 -15 -32 -15q-14 0 -24.5 11t-10.5 26q0 18 14 32l142 141q-13 41 -13 85q0 50 16 96l-145 145q-14 14 -14 31q0 15 10.5 26t24.5 11q17 0 32 -15l130 -129q53 65 138 65q88 0 142 -68l132 132q16 15 32 15q15 0 25.5 -11
t10.5 -26q0 -17 -14 -31z" />
    <glyph glyph-name="yen" unicode="&#xa5;" horiz-adv-x="586" 
d="M73 307h130v41l-34 59h-119q-44 0 -44 36q0 16 12 27.5t32 11.5h76l-119 211q-7 13 -7 26q0 15 10 25t23 10q19 0 31 -21l181 -304l181 304q12 21 34 21q32 0 32 -31q0 -14 -9 -30l-125 -211h81q43 0 43 -38q0 -37 -43 -37h-126l-35 -59v-41h130q44 0 44 -38
q0 -37 -44 -37h-130v-197q0 -43 -37 -43q-38 0 -38 43v197h-130q-43 0 -43 36q0 16 11.5 27.5t31.5 11.5z" />
    <glyph glyph-name="section" unicode="&#xa7;" horiz-adv-x="611" 
d="M131 461q-74 46 -76 125q-3 74 65 124q63 47 149 47q79 0 135 -42q64 -48 78 -137q3 -16 -8 -26.5t-27 -10.5q-34 0 -44 37q-13 49 -54 75q-36 23 -84 23q-51 0 -90 -24.5t-39 -61.5q0 -49 99 -99q177 -91 183 -95q99 -66 99 -153q0 -111 -114 -184q64 -57 64 -126
q0 -76 -68 -121q-61 -40 -149 -40q-90 0 -151 41q-69 45 -69 122q0 48 35 48q34 0 43 -54q6 -38 51 -61q41 -22 95 -22q53 0 90.5 23.5t37.5 66.5q0 47 -99 97q-166 84 -184 96q-99 68 -99 160q0 59 37 106.5t94 65.5zM206 421q-55 -10 -91.5 -49t-36.5 -84q0 -58 61 -90
l199 -106q43 27 69.5 66.5t26.5 79.5q0 64 -71 101z" />
    <glyph glyph-name="dieresis" unicode="&#xa8;" horiz-adv-x="380" 
d="M49 717q27 0 43 -16q13 -15 13 -36t-14 -37t-38 -16q-25 0 -40 17q-13 14 -13 36q0 21 13 36.5t36 15.5zM229 717q27 0 42 -15.5t15 -36.5t-14.5 -37t-39.5 -16q-24 0 -38 16.5t-14 37.5t13 36t36 15z" />
    <glyph glyph-name="copyright" unicode="&#xa9;" horiz-adv-x="852" 
d="M378 741q178 0 284 -119q96 -107 96 -262q0 -152 -95 -257q-105 -117 -285 -117q-178 0 -283 118q-95 107 -95 260q0 154 94 260q105 117 284 117zM378 51q143 0 227 98q76 87 76 214t-76 215q-84 98 -227 98t-226 -97q-75 -87 -75 -213q0 -128 75 -216q84 -99 226 -99z
M378 124q-104 0 -168 76q-58 69 -58 166q0 94 56 157q62 71 170 71q135 0 189 -133q2 -4 2 -8q0 -27 -36 -27q-27 0 -38 25q-14 35 -46.5 56.5t-70.5 21.5q-71 0 -112 -51q-36 -45 -36 -113q0 -70 38 -120q42 -56 110 -56q57 0 95 30q24 18 46 55q19 30 27 30
q9 0 16.5 -14.5t7.5 -28.5q0 -8 -3 -13q-28 -52 -81 -88t-108 -36z" />
    <glyph glyph-name="ordfeminine" unicode="&#xaa;" horiz-adv-x="327" 
d="M115 506q38 0 61 35q21 32 21 78q0 44 -20 74q-23 34 -62 34q-36 0 -55.5 -32.5t-19.5 -77.5t19.5 -78t55.5 -33zM196 715q0 37 0 32q2 21 18 21q19 0 19 -19v-259q0 -19 -19 -19q-16 0 -18 19q0 -1 0 20q-29 -37 -89 -37q-51 0 -80 44q-27 38 -27 96q0 61 29 104
q32 48 86 48t81 -50z" />
    <glyph glyph-name="guillemotleft" unicode="&#xab;" horiz-adv-x="426" 
d="M325 429l-99 -155q16 -24 104 -176q2 -3 2 -7q0 -10 -13.5 -18.5t-27.5 -8.5q-17 0 -24 12l-100 163q-11 19 -11 34t11 34l100 163q7 11 25 11q40 0 40 -31q0 -10 -7 -21zM167 429l-97 -155l103 -176q2 -4 2 -7q0 -10 -13.5 -18.5t-27.5 -8.5q-17 0 -24 12l-97 163
q-13 22 -13 34q0 13 13 34l97 163q8 12 23 12q14 0 26.5 -11t12.5 -25q0 -9 -5 -17z" />
    <glyph glyph-name="logicalnot" unicode="&#xac;" horiz-adv-x="642" 
d="M472 120v119h-429q-43 0 -43 37q0 15 11.5 27t31.5 12h463q42 0 42 -47v-148q0 -43 -36 -43q-16 0 -28 11.5t-12 31.5z" />
    <glyph glyph-name="registered" unicode="&#xae;" horiz-adv-x="851" 
d="M377 750q178 0 284 -120q96 -107 96 -261q0 -153 -95 -258q-105 -117 -285 -117q-177 0 -282 119q-95 107 -95 261q0 153 94 258q105 118 283 118zM271 586h147q63 0 103 -38.5t40 -89.5q0 -89 -111 -119l59 -89q47 -73 47 -86q0 -30 -34 -30q-29 0 -46 31l-99 174h-81
v-174q0 -31 -34 -31q-31 0 -31 31v380q0 29 13 36q9 5 27 5zM296 529v-133h114q37 0 57.5 19t20.5 46t-21 47.5t-57 20.5h-114zM377 59q143 0 227 98q76 87 76 214t-76 216q-84 98 -227 98t-226 -98q-76 -87 -76 -214t76 -216q84 -98 226 -98z" />
    <glyph glyph-name="uni00AF" unicode="&#xaf;" horiz-adv-x="670" 
d="M38 801q-38 0 -38 33t38 33h499q39 0 39 -34q0 -32 -39 -32h-499z" />
    <glyph glyph-name="degree" unicode="&#xb0;" horiz-adv-x="290" 
d="M99 801q47 0 73 -31q24 -27 24 -67t-24 -69q-28 -32 -73 -32t-73 33q-26 30 -26 72q0 39 25.5 66.5t73.5 27.5zM102 652q21 0 33 14.5t12 33.5q0 20 -12.5 35t-35.5 15t-36 -14.5t-13 -34.5t13.5 -34.5t38.5 -14.5z" />
    <glyph glyph-name="plusminus" unicode="&#xb1;" 
d="M252 402v187q0 39 38 39q17 0 30 -10.5t13 -28.5v-187h182q23 0 36.5 -13t13.5 -30q0 -40 -50 -40h-182v-197q0 -17 -12.5 -27.5t-29.5 -10.5q-39 0 -39 38v197h-182q-41 0 -41 43q0 40 41 40h182zM75 76h447q43 0 43 -38q0 -37 -43 -37h-447q-44 0 -44 36q0 16 12 27.5
t32 11.5z" />
    <glyph glyph-name="paragraph" unicode="&#xb6;" horiz-adv-x="545" 
d="M402 688v-684h-67v684h-75v-684h-66v394h-2q-71 0 -129 44q-63 48 -63 118q0 89 81 145q72 49 164 49h206v-66h-49zM35 618h23l33 -94l34 94h22v-111h-14v93l-35 -93h-14l-35 96v-96h-14v111zM242 591v-89q0 -29 -39 -29q-16 0 -33 4l-1 12q22 -5 33 -5q25 0 25 20v22
q-8 -17 -31 -17q-37 0 -37 41q0 45 50 45q15 0 33 -4zM228 582q-10 1 -18 1q-37 0 -37 -34q0 -29 26 -29q29 0 29 29v33z" />
    <glyph glyph-name="guillemotright" unicode="&#xbb;" horiz-adv-x="428" 
d="M264 274l-100 155q-9 15 -9 27q0 29 35 29q22 0 31 -15l101 -163q12 -19 12 -34t-12 -34l-101 -163q-6 -11 -29 -11q-37 0 -37 21q0 5 4 10zM107 274l-104 175q-3 4 -3 9q0 10 12 18.5t27 8.5q19 0 28 -15l97 -163q13 -21 13 -34q0 -12 -13 -34l-97 -163q-6 -11 -27 -11
q-40 0 -40 22q0 5 3 9z" />
    <glyph glyph-name="pi" unicode="&#x3c0;" horiz-adv-x="506" 
d="M0 515q0 15 9 27t24 12h355q36 0 36 -40l1 -478q0 -37 -37 -37q-36 0 -36 37v452h-278v-452q0 -37 -38 -37q-36 0 -36 37v479z" />
    <glyph glyph-name="quotedbl" unicode="&#x22;" horiz-adv-x="309" 
d="M0 726q0 43 37 43q36 0 36 -43v-147q0 -39 -37 -39q-36 0 -36 39v147zM139 726q0 43 38 43t38 -43v-147q0 -39 -39 -39q-37 0 -37 39v147z" />
    <glyph glyph-name="exclam" unicode="!" horiz-adv-x="198" 
d="M51 101q24 0 38.5 -16t14.5 -38q0 -47 -50 -47q-25 0 -40 17q-14 14 -14 35q0 49 51 49zM85 181q0 -37 -37 -37q-36 0 -36 37v544q0 43 37 43q36 0 36 -43v-544z" />
    <glyph glyph-name="uni0385" unicode="&#x385;" horiz-adv-x="447" 
d="M229 717q27 0 42 -15.5t15 -36.5t-14 -37t-39 -16t-39 16.5t-14 37.5t13 36t36 15zM151 745q-4 -1 -7 -1q-25 0 -25 34q0 25 23 34l173 68q4 2 8 2q12 0 21 -11.5t9 -26.5q0 -29 -31 -40zM49 717q28 0 43 -15.5t15 -36.5t-14.5 -37t-39.5 -16t-40 17q-13 14 -13 36
q0 21 13 36.5t36 15.5z" />
    <glyph glyph-name="uni0386" unicode="&#x386;" horiz-adv-x="678" 
d="M90 725q8 17 29 17q15 0 27.5 -9.5t12.5 -24.5q0 -7 -4 -15l-92 -179q-10 -19 -29 -19q-14 0 -24 9.5t-10 23.5q0 10 5 20zM173 231h297l-147 407zM502 149h-353l-37 -111q-14 -39 -45 -39q-32 0 -32 35q0 9 4 21l226 640q16 45 58 45q40 0 57 -45l235 -640q4 -12 4 -22
q0 -34 -34 -34q-27 0 -36 25z" />
    <glyph glyph-name="brokenbar" unicode="&#xa6;" horiz-adv-x="167" 
d="M0 781q0 21 12.5 33.5t28.5 12.5q32 0 32 -38v-309q0 -37 -37 -37q-36 0 -36 37v301zM0 360q0 21 12.5 33.5t28.5 12.5q32 0 32 -37v-333q0 -37 -37 -37q-36 0 -36 37v324z" />
    <glyph glyph-name="uni00AD" unicode="&#xad;" horiz-adv-x="32767" 
 />
    <glyph glyph-name="twosuperior" unicode="&#xb2;" horiz-adv-x="313" 
d="M0 700q0 56 32 86q29 27 72 27t75.5 -26t32.5 -67q0 -42 -35 -88l-119 -156h135q26 0 26 -19q0 -18 -26 -18h-160q-30 0 -30 19q0 9 9 18l136 184q21 29 21 56t-19 44.5t-44 17.5q-63 0 -65 -81q-1 -28 -20 -28q-21 0 -21 31z" />
    <glyph glyph-name="threesuperior" unicode="&#xb3;" horiz-adv-x="314" 
d="M115 811q37 0 61 -30t24 -70q0 -49 -37 -80q57 -25 57 -86q0 -44 -32 -79.5t-82 -35.5q-73 0 -103 65q-3 6 -3 13q0 23 19 23q9 0 16 -11q16 -27 23 -33q19 -19 49 -19q33 0 52 22q17 19 17 48q0 28 -17.5 49.5t-48.5 22.5q-23 2 -23 19q0 18 22.5 18t36 20t13.5 45
q0 62 -57 62q-43 0 -46 -57q-1 -21 -20 -21q-21 0 -21 25q0 42 28.5 66t71.5 24z" />
    <glyph glyph-name="tonos" unicode="&#x384;" horiz-adv-x="328" 
d="M196 806q5 1 9 1q12 0 20.5 -11t8.5 -26q0 -28 -31 -39l-171 -60q-14 -6 -23 4t-9 26q0 29 23 38z" />
    <glyph glyph-name="uni0388" unicode="&#x388;" horiz-adv-x="626" 
d="M234 695q0 45 40 45h255q37 0 37 -37q0 -36 -37 -36h-222v-246h214q37 0 37 -38q0 -35 -37 -35h-214v-275h230q43 0 43 -37q0 -36 -43 -36h-263q-26 0 -33 9t-7 36v650zM90 725q8 17 29 17q15 0 27.5 -9.5t12.5 -24.5q0 -7 -4 -15l-92 -179q-10 -19 -29 -19
q-14 0 -24 9.5t-10 23.5q0 10 5 20z" />
    <glyph glyph-name="uni0389" unicode="&#x389;" horiz-adv-x="876" 
d="M234 705q0 37 36 37q37 0 37 -37v-292h413v292q0 37 36 37q38 0 38 -37v-669q0 -37 -38 -37q-36 0 -36 37v303h-413v-303q0 -37 -36 -37q-37 0 -37 37v669zM90 725q8 17 29 17q15 0 27.5 -9.5t12.5 -24.5q0 -7 -4 -15l-92 -179q-10 -19 -29 -19q-14 0 -24 9.5t-10 23.5
q0 10 5 20z" />
    <glyph glyph-name="uni038A" unicode="&#x38a;" horiz-adv-x="389" 
d="M234 705q0 37 36 37q37 0 37 -37v-668q0 -37 -37 -37q-36 0 -36 37v668zM90 725q8 17 29 17q15 0 27.5 -9.5t12.5 -24.5q0 -7 -4 -15l-92 -179q-10 -19 -29 -19q-14 0 -24 9.5t-10 23.5q0 10 5 20z" />
    <glyph glyph-name="uni038C" unicode="&#x38c;" horiz-adv-x="870" 
d="M470 765q153 0 243 -122q81 -110 81 -268q0 -157 -81 -266q-90 -121 -243 -121q-150 0 -239 123q-80 110 -80 268q0 157 80 266q88 120 239 120zM470 692q-112 0 -177 -97q-58 -87 -58 -213q0 -129 59 -220q66 -100 176 -100q114 0 181 97q59 87 59 214q0 129 -60 219
q-67 100 -180 100zM90 725q8 17 29 17q15 0 27.5 -9.5t12.5 -24.5q0 -7 -4 -15l-92 -179q-10 -19 -29 -19q-14 0 -24 9.5t-10 23.5q0 10 5 20z" />
    <glyph glyph-name="onehalf" unicode="&#xbd;" horiz-adv-x="524" 
d="M68 563h-46q-22 0 -22 19q0 17 18 17h62q18 0 22 -9q2 -4 2 -25v-327q0 -18 -19 -18q-17 0 -17 18v325zM268 520l-137 -350q-4 -12 -20 -12t-16 15q0 6 4 13l137 341q7 17 19 17q8 0 12 -7.5t1 -16.5zM211 260q0 56 32 87q29 27 72 27t75.5 -26t32.5 -67q0 -42 -36 -88
l-119 -156h136q26 0 26 -19q0 -18 -26 -18h-161q-29 0 -29 19q0 9 9 18l136 184q21 29 21 56t-19 44.5t-45 17.5q-62 0 -65 -81q0 -28 -20 -28t-20 30z" />
    <glyph glyph-name="uni038E" unicode="&#x38e;" horiz-adv-x="773" 
d="M436 348l-189 333q-7 13 -7 26q0 35 32 35q20 0 32 -21l174 -292l172 290q14 23 36 23q33 0 33 -32q0 -11 -6 -21l-201 -341v-305q0 -43 -37 -43q-39 0 -39 43v305zM90 725q8 17 29 17q15 0 27.5 -9.5t12.5 -24.5q0 -7 -4 -15l-92 -179q-10 -19 -29 -19q-14 0 -24 9.5
t-10 23.5q0 10 5 20z" />
    <glyph glyph-name="uni038F" unicode="&#x38f;" horiz-adv-x="867" 
d="M481 766q153 0 239 -101q78 -90 78 -224q0 -108 -52 -197q-55 -95 -150 -131l-8 -44h144q34 0 34 -35q0 -34 -34 -34h-216l19 166q116 23 164 160q47 131 -7 247q-60 128 -211 128q-115 0 -180 -81q-58 -72 -58 -180q0 -97 48 -174q51 -82 136 -100l15 -166h-212
q-35 0 -35 34q0 35 35 35h141l-4 44q-96 35 -152 130q-52 89 -52 198q0 134 77 224q87 101 241 101zM90 725q8 17 29 17q15 0 27.5 -9.5t12.5 -24.5q0 -7 -4 -15l-92 -179q-10 -19 -29 -19q-14 0 -24 9.5t-10 23.5q0 10 5 20z" />
    <glyph glyph-name="uni0390" unicode="&#x390;" horiz-adv-x="156" 
d="M150 694q27 0 41.5 -15.5t14.5 -36.5q0 -22 -13 -36q-15 -17 -39 -17q-25 0 -39 16t-14 38q0 21 12.5 36t36.5 15zM-84 694q28 0 43 -15.5t15 -36.5q0 -22 -14 -36q-15 -17 -39 -17q-26 0 -41 17q-13 14 -13 36q0 21 13 36.5t36 15.5zM-4 765q-18 -8 -18 -29
q0 -35 32 -35q8 0 16 3l163 67q24 10 24 34q0 36 -35 36q-10 0 -21 -4zM75 36q0 -37 -38 -37q-36 0 -36 37v481q0 37 36 37q38 0 38 -37v-481z" />
    <glyph glyph-name="Alpha" unicode="&#x391;" horiz-adv-x="643" 
d="M139 231h296l-146 407zM468 149h-354l-37 -111q-13 -39 -45 -39t-32 35q0 9 4 21l226 640q17 45 58 45t58 -45l234 -640q4 -12 4 -22q0 -34 -34 -34q-27 0 -36 25z" />
    <glyph glyph-name="Beta" unicode="&#x392;" horiz-adv-x="492" 
d="M0 692q0 48 41 48h123q122 0 187 -55q56 -48 56 -121q0 -54 -31 -99.5t-80 -60.5q81 -14 127 -72q42 -53 42 -124q0 -84 -55 -143q-61 -65 -162 -65h-190q-33 0 -44 8q-14 9 -14 41v643zM74 73h149q76 0 119 41q40 38 40 93q0 62 -49 107q-54 50 -145 50h-114v-291z
M164 429q80 0 125 37q40 33 40 83q0 47 -37 81q-40 37 -104 37h-114v-238h90z" />
    <glyph glyph-name="Gamma" unicode="&#x393;" horiz-adv-x="373" 
d="M0 693q0 48 41 48h255q18 0 28.5 -11.5t10.5 -26.5q0 -35 -39 -35h-222v-631q0 -37 -38 -37q-36 0 -36 37v656z" />
    <glyph glyph-name="Delta" unicode="&#x394;" horiz-adv-x="665" 
d="M96 81h415l-211 559zM46 0q-46 0 -46 25q0 7 4 18l239 654q17 46 57 46t57 -46l248 -654q4 -11 4 -19q0 -24 -60 -24h-503z" />
    <glyph glyph-name="Epsilon" unicode="&#x395;" horiz-adv-x="392" 
d="M0 695q0 45 41 45h254q37 0 37 -37q0 -36 -37 -36h-222v-246h214q37 0 37 -38q0 -35 -37 -35h-214v-275h230q43 0 43 -37q0 -36 -43 -36h-262q-27 0 -34 9t-7 36v650z" />
    <glyph glyph-name="Zeta" unicode="&#x396;" horiz-adv-x="566" 
d="M397 668h-345q-38 0 -38 36q0 37 38 37h402q51 0 51 -33q0 -20 -19 -48l-386 -587h378q39 0 39 -35q0 -38 -39 -38h-443q-35 0 -35 42q0 23 11 39z" />
    <glyph glyph-name="Eta" unicode="&#x397;" horiz-adv-x="643" 
d="M0 705q0 37 36 37q37 0 37 -37v-292h413v292q0 37 36 37q38 0 38 -37v-669q0 -37 -38 -37q-36 0 -36 37v303h-413v-303q0 -37 -36 -37q-37 0 -37 37v669z" />
    <glyph glyph-name="Theta" unicode="&#x398;" horiz-adv-x="716" 
d="M454 343h-277q-37 0 -37 35t37 35h277q37 0 37 -36q0 -34 -37 -34zM316 692q-111 0 -176 -97q-58 -86 -58 -213q0 -129 59 -219q66 -100 175 -100q115 0 181 97q60 87 60 214q0 129 -61 218q-67 100 -180 100zM316 765q153 0 243 -122q82 -109 82 -267q0 -157 -81 -266
q-90 -121 -244 -121q-148 0 -236 123q-80 110 -80 269q0 156 79 264q87 120 237 120z" />
    <glyph glyph-name="Iota" unicode="&#x399;" horiz-adv-x="156" 
d="M0 705q0 37 36 37q37 0 37 -37v-668q0 -37 -37 -37q-36 0 -36 37v668z" />
    <glyph glyph-name="Kappa" unicode="&#x39a;" horiz-adv-x="558" 
d="M0 711q0 31 36 31q38 0 38 -31v-282l349 302q11 9 23 9q16 0 28.5 -12.5t12.5 -27.5q0 -14 -10 -23l-338 -289l355 -323q13 -12 13 -27t-11 -26t-27 -11q-18 0 -34 15l-361 340v-324q0 -33 -36 -33q-38 0 -38 33v679z" />
    <glyph glyph-name="Lambda" unicode="&#x39b;" horiz-adv-x="658" 
d="M522 40l-226 600l-220 -610q-11 -30 -39 -30q-15 0 -26 9t-11 23q0 6 2 11l237 654q16 46 57 46q40 0 57 -46l242 -641q5 -13 5 -24q0 -33 -30 -33q-33 0 -48 41z" />
    <glyph glyph-name="Mu" unicode="&#x39c;" horiz-adv-x="873" 
d="M232 677l164 -553l173 553q20 65 69 65q51 0 62 -73l103 -624q3 -20 -7 -32t-27 -12q-36 0 -42 40l-92 611l-198 -609q-15 -43 -41 -43q-27 0 -41 43l-190 609l-90 -610q-6 -41 -43 -41q-38 0 -31 46l99 622q11 75 64 75q48 0 68 -67z" />
    <glyph glyph-name="Nu" unicode="&#x39d;" horiz-adv-x="633" 
d="M0 698q0 44 36 44q28 0 52 -36l390 -574v571q0 38 36 38q37 0 37 -38v-659q0 -45 -36 -45q-29 0 -50 31l-392 572v-564q0 -39 -36 -39q-37 0 -37 39v660z" />
    <glyph glyph-name="Xi" unicode="&#x39e;" horiz-adv-x="572" 
d="M496 741q37 0 37 -37q0 -36 -37 -36h-445q-37 0 -37 36q0 37 37 37h445zM116 421h321q37 0 37 -38q0 -35 -37 -35h-321q-36 0 -36 38q0 35 36 35zM505 76q42 0 42 -38q0 -36 -42 -36h-462q-43 0 -43 37t43 37h462z" />
    <glyph glyph-name="Omicron" unicode="&#x39f;" horiz-adv-x="718" 
d="M318 765q153 0 243 -122q82 -110 82 -268q0 -157 -81 -266q-90 -121 -244 -121q-149 0 -238 123q-80 110 -80 268q0 157 79 266q88 120 239 120zM318 692q-112 0 -176 -97q-58 -87 -58 -213q0 -129 59 -220q66 -100 175 -100q115 0 181 97q60 87 60 214q0 129 -61 219
q-67 100 -180 100z" />
    <glyph glyph-name="Pi" unicode="&#x3a0;" horiz-adv-x="641" 
d="M521 743q15 0 26.5 -11.5t11.5 -26.5v-668q0 -38 -36 -38q-37 0 -37 38v631h-413v-631q0 -37 -38 -37q-35 0 -35 37v668q0 38 36 38h485z" />
    <glyph glyph-name="Rho" unicode="&#x3a1;" horiz-adv-x="506" 
d="M0 701q0 40 41 40h182q112 0 177 -71q58 -63 58 -156q0 -90 -55 -154q-61 -69 -164 -69h-166v-254q0 -37 -36 -37q-37 0 -37 37v664zM199 668h-126v-304h142q79 0 126 47q43 43 43 104q0 62 -46 105q-51 48 -139 48z" />
    <glyph glyph-name="Sigma" unicode="&#x3a3;" horiz-adv-x="553" 
d="M307 391l-206 -318h378q37 0 37 -38q0 -35 -37 -35h-444q-35 0 -35 42q0 23 11 39l200 310l-179 268q-19 28 -19 49q0 33 51 33h402q37 0 37 -38q0 -36 -37 -36h-345z" />
    <glyph glyph-name="Tau" unicode="&#x3a4;" horiz-adv-x="497" 
d="M187 668h-147q-40 0 -40 36q0 37 40 37h369q38 0 38 -37q0 -36 -38 -36h-148v-626q0 -42 -36 -42q-38 0 -38 42v626z" />
    <glyph glyph-name="Upsilon" unicode="&#x3a5;" horiz-adv-x="533" 
d="M197 348l-190 333q-7 13 -7 26q0 35 33 35q19 0 31 -21l175 -292l171 290q14 23 36 23q33 0 33 -32q0 -11 -6 -21l-201 -341v-305q0 -43 -37 -43q-38 0 -38 43v305z" />
    <glyph glyph-name="Phi" unicode="&#x3a6;" horiz-adv-x="723" 
d="M298 675v54q0 37 37 37t37 -40l-1 -51q139 0 222 -84q75 -75 75 -183q0 -107 -74 -180q-82 -82 -223 -82v-108q0 -39 -36 -39q-37 0 -37 39v108q-142 0 -224 82q-74 74 -74 181q0 108 75 183q83 83 223 83zM298 215v391q-107 0 -170 -62q-57 -55 -57 -135q0 -79 57 -133
q62 -61 170 -61zM371 215q107 0 170 60q56 54 56 133q0 80 -57 136q-63 62 -169 62v-391z" />
    <glyph glyph-name="Chi" unicode="&#x3a7;" horiz-adv-x="646" 
d="M250 409l-202 275q-10 13 -10 25q0 15 10.5 24.5t24.5 9.5q19 0 32 -18l186 -264l180 263q13 18 31 18q15 0 26 -10t11 -25q0 -12 -8 -23l-195 -272l237 -342q14 -20 14 -37q0 -33 -34 -33q-22 0 -37 21l-223 329l-223 -330q-14 -20 -36 -20q-34 0 -34 35q0 16 13 34z
" />
    <glyph glyph-name="Psi" unicode="&#x3a8;" horiz-adv-x="725" 
d="M365 238q110 0 162 45q56 49 56 159v264q0 37 37 37q38 0 38 -37v-277q0 -133 -83 -200q-75 -60 -210 -60v-133q0 -37 -37 -37q-36 0 -36 37v133q-135 0 -210 60q-82 67 -82 200v277q0 36 38 36q35 0 35 -36v-264q0 -204 219 -204v491q0 37 36 37q37 0 37 -37v-491z" />
    <glyph glyph-name="Omega" unicode="&#x3a9;" horiz-adv-x="704" 
d="M317 766q153 0 240 -101q78 -90 78 -224q0 -108 -52 -197q-55 -95 -150 -131l-9 -44h145q34 0 34 -35q0 -34 -34 -34h-217l20 166q116 23 164 160q47 131 -7 247q-60 128 -212 128q-115 0 -179 -81q-58 -72 -58 -180q0 -97 47 -174q52 -82 137 -100l15 -166h-213
q-34 0 -34 34q0 35 34 35h142l-4 44q-96 35 -152 130q-52 89 -52 198q0 134 77 224q87 101 240 101z" />
    <glyph glyph-name="Iotadieresis" unicode="&#x3aa;" horiz-adv-x="156" 
d="M127 865q26 0 40 -15.5t14 -36.5t-14 -36.5t-39 -15.5t-39.5 16.5t-14.5 37.5q0 50 53 50zM-56 865q28 0 42.5 -15.5t14.5 -36.5t-13 -35q-15 -17 -39 -17q-25 0 -39 16t-14 37t13 36t35 15zM0 705q0 37 35 37q38 0 38 -37v-668q0 -37 -38 -37q-35 0 -35 37v668z" />
    <glyph glyph-name="Upsilondieresis" unicode="&#x3ab;" horiz-adv-x="533" 
d="M197 348l-190 333q-7 13 -7 26q0 35 33 35q19 0 31 -21l175 -292l171 290q14 23 36 23q33 0 33 -32q0 -11 -6 -21l-201 -341v-305q0 -43 -37 -43q-38 0 -38 43v305zM327 865q26 0 40 -15.5t14 -36.5t-14 -36.5t-39 -15.5t-39.5 16.5t-14.5 37.5q0 50 53 50zM144 865
q28 0 42.5 -15.5t14.5 -36.5t-13 -35q-15 -17 -39 -17q-25 0 -39 16t-14 37t13 36t35 15z" />
    <glyph glyph-name="uni03AC" unicode="&#x3ac;" horiz-adv-x="547" 
d="M191 661q-18 -8 -18 -28q0 -34 30 -34q6 0 13 3l177 71q27 10 27 34q0 14 -11 25t-27 11q-10 0 -21 -5zM229 50q77 0 124 72q42 65 42 157q0 89 -41 150q-46 68 -125 68q-71 0 -113 -69q-37 -63 -37 -154t37 -154q42 -70 113 -70zM229 573q54 0 98.5 -25t65.5 -66
q0 14 -1 47q0 48 38 48q37 0 37 -46v-510q0 -30 -36 -30t-37 28.5t-1 42.5q-54 -74 -178 -74q-104 0 -164 86q-53 77 -53 192q0 122 59 210q65 97 172 97z" />
    <glyph glyph-name="uni03AD" unicode="&#x3ad;" horiz-adv-x="518" 
d="M191 661q-18 -8 -18 -28q0 -34 30 -34q6 0 13 3l177 71q27 10 27 34q0 14 -11 25t-27 11q-10 0 -21 -5zM84 307h185q19 0 34.5 -10.5t15.5 -28.5q0 -37 -50 -37h-185q0 -69 52.5 -122t121.5 -53q86 0 152 66q10 9 22 9q15 0 26 -11.5t11 -27.5q0 -18 -16 -33
q-70 -71 -192 -71q-125 0 -196 91q-64 81 -64 200t62 202q70 92 185 92q130 0 204 -73q11 -12 11 -25q0 -14 -13 -24.5t-28 -10.5q-14 0 -24 9q-51 52 -135 52q-74 0 -123 -45q-56 -52 -56 -149z" />
    <glyph glyph-name="uni03AE" unicode="&#x3ae;" horiz-adv-x="496" 
d="M0 532q0 42 36 42q37 0 37 -43v-45q55 84 156 84q76 0 130 -50q59 -53 59 -140v-575q0 -37 -37 -37q-36 0 -36 37v567q0 58 -37 92q-34 30 -85 30q-59 0 -102 -40q-48 -46 -48 -123v-294q0 -37 -37 -37q-36 0 -36 37v495zM120 661q-18 -8 -18 -28q0 -34 30 -34q6 0 13 3
l178 71q26 10 26 34q0 14 -10.5 25t-26.5 11q-11 0 -22 -5z" />
    <glyph glyph-name="uni03AF" unicode="&#x3af;" horiz-adv-x="156" 
d="M75 36q0 -37 -38 -37q-37 0 -37 37v481q0 37 36 37q39 0 39 -37v-481zM15 661q-19 -8 -19 -28q0 -34 31 -34q6 0 13 3l177 71q27 10 27 34q0 14 -11 25t-27 11q-10 0 -21 -5z" />
    <glyph glyph-name="uni03B0" unicode="&#x3b0;" horiz-adv-x="497" 
d="M0 518q0 37 36 37q37 0 37 -37v-323q0 -67 42 -105q38 -35 92 -35q56 0 95 35q43 40 43 105v323q0 37 36 37q37 0 37 -37v-347q0 -113 -108 -161q-101 -44 -202 -1q-108 46 -108 162v347zM314 694q27 0 42 -15.5t15 -36.5q0 -22 -14 -36q-14 -17 -39 -17t-39 16t-14 38
q0 21 13 36t36 15zM80 694q28 0 43 -15.5t15 -36.5q0 -22 -13 -36q-15 -17 -40 -17q-26 0 -40 17q-13 14 -13 36q0 21 13 36.5t35 15.5zM160 765q-18 -8 -18 -29q0 -35 32 -35q8 0 16 3l163 67q24 10 24 34q0 36 -35 36q-10 0 -21 -4z" />
    <glyph glyph-name="alpha" unicode="&#x3b1;" horiz-adv-x="548" 
d="M229 50q77 0 124 72q42 65 42 157q0 89 -41 150q-46 68 -125 68q-71 0 -113 -69q-37 -63 -37 -154t37 -154q42 -70 113 -70zM229 573q54 0 98.5 -25t65.5 -66q0 14 -1 47q0 48 38 48q37 0 37 -46v-510q0 -30 -36 -30t-37 28.5t-1 42.5q-54 -74 -178 -74q-104 0 -164 86
q-53 77 -53 192q0 122 59 210q65 97 172 97z" />
    <glyph glyph-name="beta" unicode="&#x3b2;" horiz-adv-x="532" 
d="M74 55v-243q0 -43 -37 -43t-37 42v768q0 186 207 186q88 0 142 -59q48 -54 48 -128q0 -96 -76 -135q69 -25 107 -84q34 -54 34 -123q0 -98 -62 -168q-69 -77 -180 -77q-106 0 -146 64zM73 208q0 -65 42 -105.5t107 -40.5t112 56t47 125q0 54 -32 94q-37 44 -109 60
q-40 8 -40 35t39.5 35.5t60.5 38.5t21 68q0 48 -29 83q-33 37 -86 37q-79 0 -109 -56q-23 -42 -23 -128z" />
    <glyph glyph-name="gamma" unicode="&#x3b3;" horiz-adv-x="503" 
d="M185 29l-183 507q-2 5 -2 10q0 27 34 27q35 0 47 -34l143 -417l140 420q10 32 43 32q36 0 36 -27q0 -4 -2 -8l-81 -221q-85 -233 -99 -289v-216q0 -47 -38 -47t-38 48v215z" />
    <glyph glyph-name="delta" unicode="&#x3b4;" horiz-adv-x="546" 
d="M242 445q-77 0 -121 -59q-39 -52 -39 -129q0 -81 41 -139q45 -65 117 -65q78 0 121 57q38 50 38 127q0 81 -41 142q-46 66 -116 66zM245 767q48 0 101 -22q57 -23 88 -59q10 -11 10 -23q0 -13 -12.5 -22.5t-29.5 -9.5q-2 0 -55 32.5t-96 32.5q-52 0 -78 -23.5t-26 -57.5
q0 -37 26.5 -68t66.5 -35q65 -6 97 -18q44 -17 80 -60q60 -71 60 -192q0 -105 -54 -174q-63 -80 -183 -80q-117 0 -182 81q-58 71 -58 178q0 83 36 150q38 72 103 99q-32 13 -51 46.5t-19 73.5q0 61 41 103q48 48 135 48z" />
    <glyph glyph-name="epsilon" unicode="&#x3b5;" horiz-adv-x="518" 
d="M84 307h185q19 0 34.5 -10.5t15.5 -28.5q0 -37 -50 -37h-185q0 -69 52.5 -122t121.5 -53q86 0 152 66q10 9 22 9q15 0 26 -11.5t11 -27.5q0 -18 -16 -33q-70 -71 -192 -71q-125 0 -196 91q-64 81 -64 200t62 202q70 92 185 92q130 0 204 -73q11 -12 11 -25
q0 -14 -13 -24.5t-28 -10.5q-14 0 -24 9q-51 52 -135 52q-74 0 -123 -45q-56 -52 -56 -149z" />
    <glyph glyph-name="zeta" unicode="&#x3b6;" horiz-adv-x="512" 
d="M212 71q245 -8 248 -137q2 -87 -45 -126q-33 -28 -109 -39q-11 -2 -22 -2q-57 0 -57 33q0 28 48 33q59 7 70 11q35 13 38 52q5 48 -28 71q-24 18 -76 25l-86 8q-93 12 -145 88q-48 70 -48 174q0 120 62 230q68 119 186 177h-195q-37 0 -37 35q0 37 37 37l371 1
q37 0 37 -36q0 -34 -35 -39q-171 -22 -265 -145q-79 -104 -79 -239q0 -88 36 -149t94 -63z" />
    <glyph glyph-name="eta" unicode="&#x3b7;" horiz-adv-x="496" 
d="M0 532q0 42 36 42q37 0 37 -43v-45q55 84 156 84q76 0 130 -50q59 -53 59 -140v-575q0 -37 -37 -37q-36 0 -36 37v567q0 58 -37 92q-34 30 -85 30q-59 0 -102 -40q-48 -46 -48 -123v-294q0 -37 -37 -37q-36 0 -36 37v495z" />
    <glyph glyph-name="theta" unicode="&#x3b8;" horiz-adv-x="556" 
d="M243 764q112 0 178 -122q60 -111 60 -269q0 -156 -59 -263q-66 -119 -179 -119q-115 0 -182 120q-61 108 -61 265q0 158 61 267q67 121 182 121zM327 349h-172q-35 0 -35 34q0 38 35 38h172q33 0 33 -38q0 -34 -33 -34zM246 695q-77 0 -124 -102q-42 -91 -42 -221
q0 -126 40 -212q44 -96 121 -96q74 0 118 101q40 92 40 222q0 126 -38 212q-42 96 -115 96z" />
    <glyph glyph-name="iota" unicode="&#x3b9;" horiz-adv-x="156" 
d="M74 36q0 -37 -38 -37q-36 0 -36 37v481q0 37 36 37q38 0 38 -37v-481z" />
    <glyph glyph-name="kappa" unicode="&#x3ba;" horiz-adv-x="431" 
d="M0 517q0 38 37 38q36 0 36 -38v-153l238 190q11 9 23 9q16 0 28 -12t12 -27q0 -21 -21 -37l-223 -172l237 -236q23 -24 23 -47q0 -34 -34 -34q-24 0 -47 24l-236 234v-218q0 -37 -36 -37q-37 0 -37 37v479z" />
    <glyph glyph-name="lambda" unicode="&#x3bb;" horiz-adv-x="459" 
d="M184 503l-76 205q-2 5 -2 10q0 25 33 25q34 0 46 -33l231 -648q5 -14 5 -25q0 -36 -34 -36q-32 0 -44 34l-127 369l-134 -367q-14 -37 -48 -37t-34 28q0 6 3 13z" />
    <glyph glyph-name="uni03BC" unicode="&#x3bc;" horiz-adv-x="498" 
d="M0 518q0 37 37 37q36 0 36 -37v-329q0 -56 38 -89q34 -31 85 -31q60 0 102 40q47 46 47 122v287q0 37 37 37q36 0 36 -37v-475q0 -44 -36 -44t-36 39q-1 24 -1 38q-56 -85 -158 -85q-63 0 -114 38v-229q0 -37 -37 -37q-36 0 -36 37v718z" />
    <glyph glyph-name="nu" unicode="&#x3bd;" horiz-adv-x="482" 
d="M78 508l130 -384l134 386q16 46 46 46q31 0 31 -35q0 -9 -4 -19l-164 -472q-11 -31 -43 -31q-29 0 -40 31l-163 470q-5 14 -5 26q0 29 26 29q36 0 52 -47z" />
    <glyph glyph-name="xi" unicode="&#x3be;" horiz-adv-x="494" 
d="M222 71q229 -5 229 -144q0 -147 -188 -161q-21 -2 -33.5 9t-12.5 26q0 27 30 32q27 3 54 7q33 5 49 20q22 19 22 58q0 80 -151 80q-117 0 -180 86q-58 81 -30 176q31 102 148 142q-83 38 -83 121q0 93 90 149h-118q-41 0 -41 34q0 35 42 35h373q36 0 36 -37
q0 -32 -36 -32q-135 0 -206 -43q-59 -36 -59 -92q0 -43 34.5 -75t83.5 -32q36 0 36 -33q0 -34 -37 -37q-94 -6 -146 -54q-46 -43 -46 -102q0 -53 37 -91q39 -41 103 -42z" />
    <glyph glyph-name="omicron" unicode="&#x3bf;" horiz-adv-x="560" 
d="M241 573q114 0 182 -94q61 -84 61 -205q0 -117 -60 -197q-66 -89 -183 -89q-114 0 -181 92q-60 82 -60 201t60 201q67 91 181 91zM241 506q-76 0 -119 -68q-38 -60 -38 -150q0 -93 40 -161q45 -74 117 -74q78 0 121 67q39 59 39 148q0 94 -42 163q-45 75 -118 75z" />
    <glyph glyph-name="rho" unicode="&#x3c1;" horiz-adv-x="546" 
d="M231 506q-75 0 -118 -69q-39 -62 -39 -153q0 -93 40 -158q44 -73 117 -73q75 0 118 69q39 62 39 153q0 93 -40 158q-44 73 -117 73zM0 282q0 117 57 199q64 92 174 92q114 0 182 -93q61 -84 61 -204q0 -118 -60 -198q-67 -90 -183 -90q-88 0 -157 79v-261q0 -37 -38 -37
q-36 0 -36 37v476z" />
    <glyph glyph-name="uni03C2" unicode="&#x3c2;" horiz-adv-x="454" 
d="M349 -79q0 46 -91 82q-127 50 -168 84q-90 75 -90 216q0 110 74.5 190t175.5 80q64 0 123 -36q31 -19 31 -42q0 -15 -11.5 -24.5t-27.5 -9.5q-15 0 -28 7q-45 26 -87 26q-73 0 -122 -73q-43 -64 -43 -132q0 -107 90 -163l168 -74q91 -42 91 -116q0 -77 -56 -123
q-49 -41 -125 -48q-34 -3 -54 7t-20 25q0 30 56 37q52 7 75 20q39 21 39 67z" />
    <glyph glyph-name="sigma" unicode="&#x3c3;" horiz-adv-x="621" 
d="M250 572q26 0 79.5 -9.5t192.5 -9.5q37 0 37 -35q0 -32 -37 -32h-102q65 -84 65 -216q0 -117 -57 -193q-64 -89 -184 -89q-113 0 -182 94q-62 85 -62 205q0 117 61 196q69 89 189 89zM244 53q77 0 120 67q39 59 39 148q0 94 -41 162q-46 75 -118 75q-76 0 -120 -68
q-38 -60 -38 -149q0 -94 40 -161q45 -74 118 -74z" />
    <glyph glyph-name="tau" unicode="&#x3c4;" horiz-adv-x="468" 
d="M241 488v-443q0 -44 -37 -44q-36 0 -36 44v443l-129 -1q-39 0 -39 33q0 34 39 34h339q37 0 37 -34q0 -32 -37 -32h-137z" />
    <glyph glyph-name="upsilon" unicode="&#x3c5;" horiz-adv-x="499" 
d="M0 518q0 37 36 37q37 0 37 -37v-323q0 -67 42 -105q38 -35 92 -35q56 0 95 35q43 40 43 105v323q0 37 36 37q37 0 37 -37v-347q0 -113 -108 -161q-101 -44 -202 -1q-108 46 -108 162v347z" />
    <glyph glyph-name="phi" unicode="&#x3c6;" horiz-adv-x="719" 
d="M241 564q12 0 20.5 -11t8.5 -24q0 -27 -31 -32q-80 -12 -123 -72q-39 -55 -39 -131q0 -93 52 -162q56 -75 143 -75v254q0 122 26 175q38 78 146 78q91 0 149 -83q54 -78 54 -186q0 -123 -71 -206q-82 -96 -231 -98v-186q0 -38 -36 -38q-37 0 -37 38v186q-128 0 -204 94
q-68 85 -68 206q0 112 60 188q67 85 181 85zM345 59q113 0 174 76q51 64 51 161q0 81 -34 140q-37 63 -92 63q-70 0 -90 -66q-9 -30 -9 -124v-250z" />
    <glyph glyph-name="chi" unicode="&#x3c7;" horiz-adv-x="496" 
d="M177 173l-145 318q-8 16 -8 30q0 37 36 37q27 0 37 -24l123 -279l137 277q12 24 35 24q15 0 26 -11t11 -28q0 -13 -7 -28l-161 -316l180 -344q14 -27 4 -46q-8 -17 -29 -17q-28 0 -46 34l-151 295l-140 -299q-15 -32 -48 -32q-20 0 -28 16q-9 17 6 47z" />
    <glyph glyph-name="psi" unicode="&#x3c8;" horiz-adv-x="749" 
d="M375 532v-475q96 0 161.5 61t65.5 160v189q0 46 36 46q16 0 28 -12.5t12 -34.5v-181q0 -127 -87.5 -211t-215.5 -86v-170q0 -53 -37 -53q-36 0 -36 53v170q-127 0 -214.5 85t-87.5 212v181q0 48 35 48q16 0 28.5 -13t12.5 -34v-182q0 -105 66 -168q63 -60 160 -60v475
q0 40 36 40q37 0 37 -40z" />
    <glyph glyph-name="omega" unicode="&#x3c9;" horiz-adv-x="753" 
d="M674 274q0 -146 -69 -224q-57 -64 -142 -64q-44 0 -79 19t-47 50q-12 -30 -47.5 -49t-79.5 -19q-85 0 -141 63q-69 77 -69 224q0 107 49 189q59 97 160 97q17 0 29 -11.5t12 -25.5q0 -25 -33 -30q-136 -22 -136 -219q0 -108 43 -169q36 -52 88 -52q37 0 62.5 28.5
t25.5 77.5v108q0 44 38 44q37 0 37 -47v-111q0 -49 23 -77q20 -25 53 -25q53 0 94 56q47 64 47 167q0 182 -138 219q-33 9 -33 32q0 13 12.5 24t30.5 11q101 0 160 -97q50 -82 50 -189z" />
    <glyph glyph-name="iotadieresis" unicode="&#x3ca;" horiz-adv-x="156" 
d="M125 694q27 0 42 -15.5t15 -36.5q0 -22 -13 -36q-15 -17 -39 -17q-26 0 -40 16t-14 38q0 21 13 36t36 15zM-50 694q28 0 43 -15.5t15 -36.5q0 -22 -14 -36q-15 -17 -40 -17t-40 17q-13 14 -13 36q0 21 13 36.5t36 15.5zM82 36q0 -37 -38 -37q-36 0 -36 37v481q0 37 36 37
q38 0 38 -37v-481z" />
    <glyph glyph-name="upsilondieresis" unicode="&#x3cb;" horiz-adv-x="496" 
d="M295 694q28 0 42.5 -15.5t14.5 -36.5q0 -22 -13 -36q-15 -17 -39 -17q-25 0 -39.5 16t-14.5 38q0 21 13 36t36 15zM120 694q28 0 43 -15.5t15 -36.5q0 -22 -13 -36q-15 -17 -40 -17q-26 0 -40 17q-13 14 -13 36q0 21 13 36.5t35 15.5zM0 518q0 37 36 37q37 0 37 -37v-323
q0 -67 42 -105q38 -35 92 -35q56 0 95 35q43 40 43 105v323q0 37 36 37q37 0 37 -37v-347q0 -113 -108 -161q-101 -44 -202 -1q-108 46 -108 162v347z" />
    <glyph glyph-name="uni03CC" unicode="&#x3cc;" horiz-adv-x="557" 
d="M241 573q114 0 182 -94q61 -84 61 -205q0 -117 -60 -197q-66 -89 -183 -89q-114 0 -181 92q-60 82 -60 201t60 201q67 91 181 91zM241 506q-76 0 -119 -68q-38 -60 -38 -150q0 -93 40 -161q45 -74 117 -74q78 0 121 67q39 59 39 148q0 94 -42 163q-45 75 -118 75z
M191 661q-18 -8 -18 -28q0 -34 30 -34q6 0 13 3l177 71q27 10 27 34q0 14 -11 25t-27 11q-10 0 -21 -5z" />
    <glyph glyph-name="uni03CD" unicode="&#x3cd;" horiz-adv-x="496" 
d="M0 518q0 37 36 37q37 0 37 -37v-323q0 -67 42 -105q38 -35 92 -35q56 0 95 35q43 40 43 105v323q0 37 36 37q37 0 37 -37v-347q0 -113 -108 -161q-101 -44 -202 -1q-108 46 -108 162v347zM167 661q-18 -8 -18 -28q0 -34 30 -34q6 0 13 3l178 71q26 10 26 34
q0 14 -10.5 25t-26.5 11q-11 0 -22 -5z" />
    <glyph glyph-name="uni03CE" unicode="&#x3ce;" horiz-adv-x="753" 
d="M674 274q0 -146 -69 -224q-57 -64 -141 -64q-44 0 -79.5 19t-47.5 50q-12 -30 -47.5 -49t-79.5 -19q-85 0 -141 63q-69 77 -69 224q0 107 49 189q59 97 160 97q17 0 29 -11.5t12 -25.5q0 -25 -33 -30q-136 -22 -136 -219q0 -108 43 -169q36 -52 88 -52q37 0 62.5 28.5
t25.5 77.5v108q0 44 38 44q37 0 37 -47v-111q0 -49 23 -77q20 -25 53 -25q53 0 94 56q47 64 47 167q0 182 -138 219q-33 9 -33 32q0 13 12.5 24t30.5 11q101 0 160 -97q50 -82 50 -189zM308 661q-18 -8 -18 -28q0 -34 30 -34q6 0 13 3l178 71q26 10 26 34q0 14 -10.5 25
t-26.5 11q-11 0 -22 -5z" />
    <glyph glyph-name="glyph206" horiz-adv-x="500" 
d="M63 0v800h375v-800h-375zM125 63h250v675h-250v-675z" />
    </font>
</defs>
</svg>
